<?xml version="1.0" encoding="UTF-8" standalone="no"?>
<!-- Generator: Gravit.io -->
<svg xmlns="http://www.w3.org/2000/svg" xmlns:xlink="http://www.w3.org/1999/xlink" style="isolation:isolate" viewBox="880 -323.451 135.652 120" width="135.652" height="120"><g id="Group"><linearGradient id="_lgradient_12" x1="50%" y1="-3.623913043478258%" x2="49.99999999999998%" y2="102.23695652173915%"><stop offset="0%" stop-opacity="1" style="stop-color:rgb(26,109,255)"/><stop offset="100%" stop-opacity="1" style="stop-color:rgb(200,34,255)"/></linearGradient><path d=" M 1010.435 -229.538 L 1002.609 -229.538 L 1002.609 -307.799 C 1002.609 -310.676 1000.269 -313.016 997.391 -313.016 L 976.522 -313.016 L 976.522 -318.234 C 976.522 -321.111 974.182 -323.451 971.304 -323.451 L 950.435 -323.451 C 947.557 -323.451 945.217 -321.111 945.217 -318.234 L 945.217 -299.973 L 924.348 -299.973 L 924.348 -305.19 C 924.348 -308.068 922.008 -310.408 919.13 -310.408 L 898.261 -310.408 C 895.383 -310.408 893.043 -308.068 893.043 -305.19 L 893.043 -229.538 L 885.217 -229.538 C 882.34 -229.538 880 -227.198 880 -224.321 L 880 -219.103 C 880 -216.226 882.34 -213.886 885.217 -213.886 L 900.87 -213.886 L 900.87 -208.669 C 900.87 -205.791 903.21 -203.451 906.087 -203.451 L 921.739 -203.451 C 924.617 -203.451 926.957 -205.791 926.957 -208.669 L 926.957 -213.886 L 968.696 -213.886 L 968.696 -208.669 C 968.696 -205.791 971.036 -203.451 973.913 -203.451 L 989.565 -203.451 C 992.443 -203.451 994.783 -205.791 994.783 -208.669 L 994.783 -213.886 L 1010.435 -213.886 C 1013.312 -213.886 1015.652 -216.226 1015.652 -219.103 L 1015.652 -224.321 C 1015.652 -227.198 1013.312 -229.538 1010.435 -229.538 Z  M 950.435 -307.799 L 971.304 -307.799 L 971.304 -239.973 L 950.435 -239.973 L 950.435 -307.799 Z  M 997.391 -239.973 L 976.522 -239.973 L 976.522 -297.364 L 997.391 -297.364 L 997.391 -239.973 Z  M 945.217 -239.973 L 924.348 -239.973 L 924.348 -284.321 L 945.217 -284.321 L 945.217 -239.973 Z  M 919.13 -239.973 L 898.261 -239.973 L 898.261 -294.756 L 919.13 -294.756 L 919.13 -239.973 Z  M 924.348 -234.756 L 945.217 -234.756 L 945.217 -229.538 L 924.348 -229.538 L 924.348 -234.756 Z  M 950.435 -234.756 L 971.304 -234.756 L 971.304 -229.538 L 950.435 -229.538 L 950.435 -234.756 Z  M 976.522 -234.756 L 997.391 -234.756 L 997.391 -229.538 L 976.522 -229.538 L 976.522 -234.756 Z  M 997.391 -307.799 L 997.391 -302.582 L 976.522 -302.582 L 976.522 -307.799 L 997.391 -307.799 Z  M 971.304 -318.234 L 971.304 -313.016 L 950.435 -313.016 L 950.435 -318.234 L 971.304 -318.234 Z  M 945.217 -294.756 L 945.217 -289.538 L 924.348 -289.538 L 924.348 -294.756 L 945.217 -294.756 Z  M 919.13 -305.19 L 919.13 -299.973 L 898.261 -299.973 L 898.261 -305.19 L 919.13 -305.19 Z  M 898.261 -234.756 L 919.13 -234.756 L 919.13 -229.538 L 898.261 -229.538 L 898.261 -234.756 Z  M 921.739 -208.669 L 906.087 -208.669 L 906.087 -213.886 L 921.739 -213.886 L 921.739 -208.669 Z  M 989.565 -208.669 L 973.913 -208.669 L 973.913 -213.886 L 989.565 -213.886 L 989.565 -208.669 Z  M 1010.435 -219.103 L 885.217 -219.103 L 885.217 -224.321 L 1010.435 -224.321 L 1010.435 -219.103 Z " fill="url(#_lgradient_12)"/><linearGradient id="_lgradient_13" x1="50%" y1="-86.2764705882353%" x2="49.99999999999995%" y2="200.17058823529413%"><stop offset="0%" stop-opacity="1" style="stop-color:rgb(26,109,255)"/><stop offset="100%" stop-opacity="1" style="stop-color:rgb(200,34,255)"/></linearGradient><rect x="906.087" y="-289.538" width="5.217" height="44.348" transform="matrix(1,0,0,1,0,0)" fill="url(#_lgradient_13)"/><linearGradient id="_lgradient_14" x1="50%" y1="-143.59230769230768%" x2="49.999999999999936%" y2="230.99230769230772%"><stop offset="0%" stop-opacity="1" style="stop-color:rgb(26,109,255)"/><stop offset="100%" stop-opacity="1" style="stop-color:rgb(200,34,255)"/></linearGradient><rect x="932.174" y="-279.103" width="5.217" height="33.913" transform="matrix(1,0,0,1,0,0)" fill="url(#_lgradient_14)"/><linearGradient id="_lgradient_15" x1="50%" y1="-43.94090909090909%" x2="49.999999999999964%" y2="177.4045454545455%"><stop offset="0%" stop-opacity="1" style="stop-color:rgb(26,109,255)"/><stop offset="100%" stop-opacity="1" style="stop-color:rgb(200,34,255)"/></linearGradient><rect x="958.261" y="-302.582" width="5.217" height="57.391" transform="matrix(1,0,0,1,0,0)" fill="url(#_lgradient_15)"/><linearGradient id="_lgradient_16" x1="50%" y1="-75.92777777777778%" x2="49.99999999999995%" y2="194.60555555555555%"><stop offset="0%" stop-opacity="1" style="stop-color:rgb(26,109,255)"/><stop offset="100%" stop-opacity="1" style="stop-color:rgb(200,34,255)"/></linearGradient><rect x="984.348" y="-292.147" width="5.217" height="46.957" transform="matrix(1,0,0,1,0,0)" fill="url(#_lgradient_16)"/><linearGradient id="_lgradient_17" x1="50%" y1="-20.85000000000008%" x2="49.99999999999997%" y2="129.14999999999992%"><stop offset="0%" stop-opacity="1" style="stop-color:rgb(109,199,255)"/><stop offset="100%" stop-opacity="1" style="stop-color:rgb(230,171,255)"/></linearGradient><rect x="906.087" y="-213.886" width="15.652" height="5.217" transform="matrix(1,0,0,1,0,0)" fill="url(#_lgradient_17)"/><linearGradient id="_lgradient_18" x1="50%" y1="-20.85000000000008%" x2="49.99999999999997%" y2="129.14999999999992%"><stop offset="0%" stop-opacity="1" style="stop-color:rgb(109,199,255)"/><stop offset="100%" stop-opacity="1" style="stop-color:rgb(230,171,255)"/></linearGradient><rect x="973.913" y="-213.886" width="15.652" height="5.217" transform="matrix(1,0,0,1,0,0)" fill="url(#_lgradient_18)"/></g></svg>