<?xml version="1.0" encoding="UTF-8" standalone="no"?>
<!-- Generator: Gravit.io -->
<svg xmlns="http://www.w3.org/2000/svg" xmlns:xlink="http://www.w3.org/1999/xlink" style="isolation:isolate" viewBox="-242 63.71 174 120" width="174" height="120"><g id="Group"><linearGradient id="_lgradient_49" x1="50%" y1="-12.069230769230765%" x2="49.99999999999998%" y2="107.61538461538463%"><stop offset="0%" stop-opacity="1" style="stop-color:rgb(109,199,255)"/><stop offset="100%" stop-opacity="1" style="stop-color:rgb(230,171,255)"/></linearGradient><path d=" M -173 114.71 L -173 153.71 C -184.598 153.71 -194 144.308 -194 132.71 C -194 121.112 -184.598 112.46 -173 112.46" fill="url(#_lgradient_49)"/><linearGradient id="_lgradient_50" x1="50%" y1="-1.249996317323726%" x2="49.999999999999986%" y2="101.49749994553274%"><stop offset="0%" stop-opacity="1" style="stop-color:rgb(26,109,255)"/><stop offset="100%" stop-opacity="1" style="stop-color:rgb(200,34,255)"/></linearGradient><path d=" M -77 123.71 L -104 123.71 L -104 96.71 C -104 88.439 -110.729 81.71 -119 81.71 L -122 81.71 C -122 78.401 -124.691 75.71 -128 75.71 L -134 75.71 C -137.309 75.71 -140 78.401 -140 81.71 L -146.837 81.71 L -150.785 69.863 C -152.008 66.187 -155.449 63.707 -159.323 63.71 L -186.674 63.71 C -190.549 63.706 -193.99 66.186 -195.212 69.863 L -199.163 81.71 L -206 81.71 C -206 78.401 -208.691 75.71 -212 75.71 L -218 75.71 C -221.309 75.71 -224 78.401 -224 81.71 L -227 81.71 C -235.271 81.71 -242 88.439 -242 96.71 L -242 168.71 C -242 176.981 -235.271 183.71 -227 183.71 L -77 183.71 C -72.038 183.71 -68 179.672 -68 174.71 L -68 132.71 C -68 127.748 -72.038 123.71 -77 123.71 Z  M -74 132.71 L -74 146.468 L -95.156 167.624 L -109.832 155.045 C -113.406 152.002 -118.715 152.206 -122.045 155.513 L -140 173.468 L -140 132.71 C -140 131.057 -138.656 129.71 -137 129.71 L -77 129.71 C -75.344 129.71 -74 131.057 -74 132.71 Z  M -105.242 177.71 L -135.758 177.71 L -117.806 159.755 C -116.697 158.655 -114.931 158.587 -113.741 159.599 L -99.413 171.878 L -105.242 177.71 Z  M -189.524 71.762 C -189.113 70.535 -187.967 69.71 -186.677 69.71 L -159.326 69.71 C -158.034 69.71 -156.887 70.536 -156.479 71.762 L -153.161 81.71 L -192.839 81.71 L -189.524 71.762 Z  M -236 168.71 L -236 153.71 L -224 153.71 L -224 147.71 L -236 147.71 L -236 141.71 L -224 141.71 L -224 135.71 L -236 135.71 L -236 129.71 L -224 129.71 L -224 123.71 L -236 123.71 L -236 117.71 L -224 117.71 L -224 111.71 L -236 111.71 L -236 96.71 C -236 91.748 -231.962 87.71 -227 87.71 L -119 87.71 C -114.038 87.71 -110 91.748 -110 96.71 L -110 123.71 L -137 123.71 C -138.452 123.71 -139.808 124.088 -141.023 124.703 C -144.617 110.369 -157.571 99.71 -173 99.71 C -191.195 99.71 -206 114.515 -206 132.71 C -206 150.905 -191.195 165.71 -173 165.71 C -161.84 165.71 -151.976 160.127 -146 151.625 L -146 174.71 C -146 175.766 -145.784 176.768 -145.448 177.71 L -227 177.71 C -231.962 177.71 -236 173.672 -236 168.71 Z  M -146 132.71 C -146 147.596 -158.111 159.71 -173 159.71 C -187.889 159.71 -200 147.596 -200 132.71 C -200 117.824 -187.889 105.71 -173 105.71 C -158.111 105.71 -146 117.824 -146 132.71 Z  M -77 177.71 L -96.758 177.71 L -74 154.952 L -74 174.71 C -74 176.363 -75.344 177.71 -77 177.71 Z " fill="url(#_lgradient_50)"/><linearGradient id="_lgradient_51" x1="50%" y1="-1275%" x2="49.99999999999962%" y2="779.9499999999998%"><stop offset="0%" stop-opacity="1" style="stop-color:rgb(26,109,255)"/><stop offset="100%" stop-opacity="1" style="stop-color:rgb(200,34,255)"/></linearGradient><rect x="-98" y="138.71" width="12" height="6" transform="matrix(1,0,0,1,0,0)" fill="url(#_lgradient_51)"/><linearGradient id="_lgradient_52" x1="50%" y1="-262.5%" x2="49.99999999999981%" y2="764.9749999999999%"><stop offset="0%" stop-opacity="1" style="stop-color:rgb(26,109,255)"/><stop offset="100%" stop-opacity="1" style="stop-color:rgb(200,34,255)"/></linearGradient><path d=" M -218 93.71 L -224 93.71 C -227.309 93.71 -230 96.401 -230 99.71 C -230 103.019 -227.309 105.71 -224 105.71 L -218 105.71 C -214.691 105.71 -212 103.019 -212 99.71 C -212 96.401 -214.691 93.71 -218 93.71 Z " fill="url(#_lgradient_52)"/><linearGradient id="_lgradient_53" x1="50%" y1="-262.5%" x2="49.99999999999981%" y2="764.9749999999999%"><stop offset="0%" stop-opacity="1" style="stop-color:rgb(26,109,255)"/><stop offset="100%" stop-opacity="1" style="stop-color:rgb(200,34,255)"/></linearGradient><path d=" M -128 105.71 L -122 105.71 C -118.691 105.71 -116 103.019 -116 99.71 C -116 96.401 -118.691 93.71 -122 93.71 L -128 93.71 C -131.309 93.71 -134 96.401 -134 99.71 C -134 103.019 -131.309 105.71 -128 105.71 Z " fill="url(#_lgradient_53)"/></g></svg>