<?xml version="1.0" standalone="no"?><!-- Generator: Gravit.io --><svg xmlns="http://www.w3.org/2000/svg" xmlns:xlink="http://www.w3.org/1999/xlink" style="isolation:isolate" viewBox="345.48 121.757 354.52 242.248" width="354.52" height="242.248"><g id="Group"><linearGradient id="_lgradient_8" x1="50.000719723847155%" y1="-5.360553584131433%" x2="50.00071972384713%" y2="107.83213091115556%"><stop offset="0%" stop-opacity="1" style="stop-color:rgb(109,199,255)"/><stop offset="100%" stop-opacity="1" style="stop-color:rgb(230,171,255)"/></linearGradient><path d=" M 609.487 200.05 L 525.332 162.681 C 523.692 161.954 521.794 161.954 520.154 162.681 L 435.998 200.05 C 434.974 200.486 434.316 201.449 434.316 202.509 C 434.316 203.57 434.974 204.533 435.998 204.969 L 520.154 242.338 C 521.792 243.064 523.699 243.064 525.332 242.338 L 609.487 204.969 C 610.507 204.529 611.162 203.568 611.162 202.509 C 611.162 201.451 610.507 200.49 609.487 200.05 Z " fill="url(#_lgradient_8)"/><linearGradient id="_lgradient_9" x1="50%" y1="-1.1892020274432813%" x2="49.999999999999986%" y2="99.77381769387523%"><stop offset="0%" stop-opacity="1" style="stop-color:rgb(26,109,255)"/><stop offset="100%" stop-opacity="1" style="stop-color:rgb(200,34,255)"/></linearGradient><path d=" M 687.775 297.995 L 687.775 294.788 C 687.775 290.537 685.3 286.858 681.663 284.856 L 681.663 217.225 L 693.148 212.335 C 697.372 210.535 700 206.769 700 202.507 C 700 198.244 697.372 194.478 693.148 192.684 L 530.27 123.289 C 525.483 121.247 519.996 121.247 515.209 123.289 L 352.332 192.684 C 348.108 194.484 345.48 198.25 345.48 202.507 C 345.48 206.763 348.108 210.535 352.332 212.329 L 388.267 227.642 L 388.267 265.91 C 388.267 272.837 394.092 278.385 399.874 280.813 L 510.136 326.994 C 513.957 328.583 518.088 329.399 522.263 329.388 C 526.42 329.388 530.57 328.592 534.353 327.006 L 645.447 280.813 C 651.302 278.356 657.213 272.796 657.213 265.91 L 657.213 227.642 L 669.438 222.434 L 669.438 284.862 C 665.801 286.863 663.325 290.543 663.325 294.794 L 663.325 298.001 C 656.052 302.003 651.101 309.363 651.101 317.864 L 651.101 340.935 C 651.101 353.658 662.066 364.005 675.55 364.005 C 689.034 364.005 700 353.658 700 340.935 L 700 317.864 C 700 309.357 695.049 301.998 687.775 297.995 Z  M 690.636 197.939 L 688.136 203.199 L 688.124 203.193 L 690.636 197.939 Z  M 520.246 133.797 C 521.836 133.134 523.649 133.134 525.24 133.797 L 686.504 202.507 L 525.234 271.216 C 523.643 271.88 521.83 271.88 520.24 271.216 L 358.976 202.507 L 520.246 133.797 Z  M 614.426 245.873 L 614.426 281.113 L 577.752 296.363 L 577.752 261.503 L 614.426 245.873 Z  M 467.728 261.498 L 467.728 296.611 L 431.054 281.252 L 431.054 245.873 L 467.728 261.498 Z  M 400.491 265.91 L 400.491 232.85 L 418.829 240.665 L 418.829 276.136 L 404.837 270.276 C 402.276 269.197 400.491 267.109 400.491 265.91 Z  M 479.953 301.732 L 479.953 266.706 L 515.209 281.724 C 515.668 281.921 516.157 282.007 516.627 282.163 L 516.627 316.907 C 516.12 316.745 515.588 316.653 515.105 316.451 L 479.953 301.732 Z  M 529.402 316.463 C 529.225 316.538 529.03 316.561 528.852 316.63 L 528.852 282.169 C 529.323 282.013 529.812 281.926 530.264 281.73 L 565.527 266.706 L 565.527 301.444 L 529.402 316.463 Z  M 644.988 265.91 C 644.988 267.075 643.063 269.186 640.502 270.264 L 626.651 276.026 L 626.651 240.665 L 644.988 232.856 L 644.988 265.91 Z  M 675.55 306.323 C 682.292 306.323 687.775 311.497 687.775 317.858 L 687.775 323.626 L 663.325 323.626 L 663.325 317.858 C 663.325 311.503 668.808 306.323 675.55 306.323 Z  M 675.55 352.464 C 668.808 352.464 663.325 347.29 663.325 340.929 L 663.325 335.161 L 687.775 335.161 L 687.775 340.929 C 687.775 347.29 682.292 352.464 675.55 352.464 Z " fill="url(#_lgradient_9)"/></g></svg>