<?xml version="1.0" standalone="no"?><!-- Generator: Gravit.io --><svg xmlns="http://www.w3.org/2000/svg" xmlns:xlink="http://www.w3.org/1999/xlink" style="isolation:isolate" viewBox="680 -276.422 360 360" width="360" height="360"><g id="Group"><linearGradient id="_lgradient_16" x1="50%" y1="-1.4423076923076927%" x2="49.999999999999986%" y2="102.5173076923077%"><stop offset="0%" stop-opacity="1" style="stop-color:rgb(26,109,255)"/><stop offset="100%" stop-opacity="1" style="stop-color:rgb(200,34,255)"/></linearGradient><path d=" M 1005.385 -234.884 L 800.981 -234.884 C 792.403 -259.045 769.377 -276.422 742.308 -276.422 C 707.948 -276.422 680 -248.474 680 -214.115 C 680 -199.32 685.206 -185.737 693.846 -175.034 L 693.846 -109.327 C 693.841 -105.657 695.296 -102.135 697.891 -99.54 C 700.487 -96.945 704.008 -95.489 707.678 -95.495 C 710.365 -95.495 713.03 -96.27 715.349 -97.821 L 742.315 -115.793 L 769.266 -97.821 C 769.276 -91.232 773.937 -85.567 780.4 -84.287 C 786.863 -83.007 793.331 -86.468 795.852 -92.555 C 798.372 -98.643 796.245 -105.663 790.769 -109.327 L 790.769 -175.034 C 799.732 -186.086 804.621 -199.885 804.615 -214.115 C 804.615 -216.455 804.463 -218.76 804.207 -221.038 L 977.872 -221.038 C 973.291 -215.081 970.795 -207.783 970.769 -200.268 L 970.769 48.962 C 970.769 60.413 961.451 69.732 950 69.732 C 938.549 69.732 929.231 60.413 929.231 48.962 L 929.231 14.347 L 749.231 14.347 L 749.231 -82.576 L 735.385 -82.576 L 735.385 14.347 L 680 14.347 L 680 48.962 C 680 68.049 695.528 83.578 714.615 83.578 L 950 83.578 C 969.087 83.578 984.615 68.049 984.615 48.962 L 984.615 -165.653 L 1040 -165.653 L 1040 -200.268 C 1040 -219.355 1024.472 -234.884 1005.385 -234.884 Z  M 749.978 -127.32 C 745.325 -130.415 739.267 -130.413 734.616 -127.313 L 707.692 -109.327 L 707.692 -162.337 C 717.927 -155.463 729.979 -151.797 742.308 -151.807 C 754.64 -151.797 766.694 -155.466 776.93 -162.344 L 776.944 -109.341 L 749.978 -127.32 Z  M 742.308 -165.653 C 715.592 -165.653 693.846 -187.398 693.846 -214.115 C 693.846 -240.831 715.592 -262.576 742.308 -262.576 C 769.024 -262.576 790.769 -240.831 790.769 -214.115 C 790.769 -187.398 769.024 -165.653 742.308 -165.653 Z  M 714.615 69.732 C 703.165 69.732 693.846 60.413 693.846 48.962 L 693.846 28.193 L 915.385 28.193 L 915.385 48.962 C 915.385 56.751 917.967 63.944 922.322 69.732 L 714.615 69.732 Z  M 1026.154 -179.499 L 984.615 -179.499 L 984.615 -200.268 C 984.615 -211.719 993.934 -221.038 1005.385 -221.038 C 1016.835 -221.038 1026.154 -211.719 1026.154 -200.268 L 1026.154 -179.499 Z " fill="url(#_lgradient_16)"/><linearGradient id="_lgradient_17" x1="50%" y1="-837.5%" x2="49.9999999999995%" y2="1865.4499999999998%"><stop offset="0%" stop-opacity="1" style="stop-color:rgb(26,109,255)"/><stop offset="100%" stop-opacity="1" style="stop-color:rgb(200,34,255)"/></linearGradient><rect x="832.308" y="-165.653" width="124.615" height="13.846" transform="matrix(1,0,0,1,0,0)" fill="url(#_lgradient_17)"/><linearGradient id="_lgradient_18" x1="50%" y1="-1037.5%" x2="49.9999999999995%" y2="1665.4499999999998%"><stop offset="0%" stop-opacity="1" style="stop-color:rgb(26,109,255)"/><stop offset="100%" stop-opacity="1" style="stop-color:rgb(200,34,255)"/></linearGradient><rect x="832.308" y="-137.961" width="96.923" height="13.846" transform="matrix(1,0,0,1,0,0)" fill="url(#_lgradient_18)"/><linearGradient id="_lgradient_19" x1="50%" y1="-1237.5%" x2="49.9999999999995%" y2="1465.4499999999998%"><stop offset="0%" stop-opacity="1" style="stop-color:rgb(26,109,255)"/><stop offset="100%" stop-opacity="1" style="stop-color:rgb(200,34,255)"/></linearGradient><rect x="832.308" y="-110.268" width="69.231" height="13.846" transform="matrix(1,0,0,1,0,0)" fill="url(#_lgradient_19)"/><linearGradient id="_lgradient_20" x1="50%" y1="-384.375%" x2="49.99999999999988%" y2="291.36249999999995%"><stop offset="0%" stop-opacity="1" style="stop-color:rgb(26,109,255)"/><stop offset="100%" stop-opacity="1" style="stop-color:rgb(200,34,255)"/></linearGradient><path d=" M 894.615 -41.038 C 894.615 -25.765 907.035 -13.345 922.308 -13.345 C 937.58 -13.345 950 -25.765 950 -41.038 C 950 -56.31 937.58 -68.73 922.308 -68.73 C 907.035 -68.73 894.615 -56.31 894.615 -41.038 Z  M 936.154 -41.038 C 936.154 -33.402 929.944 -27.192 922.308 -27.192 C 914.672 -27.192 908.462 -33.402 908.462 -41.038 C 908.462 -48.674 914.672 -54.884 922.308 -54.884 C 929.944 -54.884 936.154 -48.674 936.154 -41.038 Z " fill="url(#_lgradient_20)"/><linearGradient id="_lgradient_21" x1="50%" y1="-818.75%" x2="49.99999999999975%" y2="532.7249999999999%"><stop offset="0%" stop-opacity="1" style="stop-color:rgb(26,109,255)"/><stop offset="100%" stop-opacity="1" style="stop-color:rgb(200,34,255)"/></linearGradient><rect x="846.154" y="-54.884" width="13.846" height="27.692" transform="matrix(1,0,0,1,0,0)" fill="url(#_lgradient_21)"/><linearGradient id="_lgradient_22" x1="50%" y1="-818.75%" x2="49.99999999999975%" y2="532.7249999999999%"><stop offset="0%" stop-opacity="1" style="stop-color:rgb(26,109,255)"/><stop offset="100%" stop-opacity="1" style="stop-color:rgb(200,34,255)"/></linearGradient><rect x="818.462" y="-54.884" width="13.846" height="27.692" transform="matrix(1,0,0,1,0,0)" fill="url(#_lgradient_22)"/><linearGradient id="_lgradient_23" x1="50%" y1="-818.75%" x2="49.99999999999975%" y2="532.7249999999999%"><stop offset="0%" stop-opacity="1" style="stop-color:rgb(26,109,255)"/><stop offset="100%" stop-opacity="1" style="stop-color:rgb(200,34,255)"/></linearGradient><rect x="790.769" y="-54.884" width="13.846" height="27.692" transform="matrix(1,0,0,1,0,0)" fill="url(#_lgradient_23)"/><linearGradient id="_lgradient_24" x1="50%" y1="-818.75%" x2="49.99999999999975%" y2="532.7249999999999%"><stop offset="0%" stop-opacity="1" style="stop-color:rgb(26,109,255)"/><stop offset="100%" stop-opacity="1" style="stop-color:rgb(200,34,255)"/></linearGradient><rect x="763.077" y="-54.884" width="13.846" height="27.692" transform="matrix(1,0,0,1,0,0)" fill="url(#_lgradient_24)"/><linearGradient id="_lgradient_25" x1="50%" y1="-2.499999999999991%" x2="49.99999999999998%" y2="103.76000000000003%"><stop offset="0%" stop-opacity="1" style="stop-color:rgb(109,199,255)"/><stop offset="100%" stop-opacity="1" style="stop-color:rgb(230,171,255)"/></linearGradient><path d=" M 707.692 -214.115 C 707.692 -233.219 723.203 -248.73 742.308 -248.73 C 761.412 -248.73 776.923 -233.219 776.923 -214.115 C 776.923 -195.01 761.412 -179.499 742.308 -179.499 C 723.203 -179.499 707.692 -195.01 707.692 -214.115 Z " fill="url(#_lgradient_25)"/></g></svg>