<?xml version="1.0" standalone="no"?><!-- Generator: Gravit.io --><svg xmlns="http://www.w3.org/2000/svg" xmlns:xlink="http://www.w3.org/1999/xlink" style="isolation:isolate" viewBox="383.687 -300 374.4 360" width="374.4" height="360"><g id="Group"><linearGradient id="_lgradient_26" x1="50%" y1="-13.883333333333336%" x2="49.99999999999998%" y2="112.61666666666663%"><stop offset="0%" stop-opacity="1" style="stop-color:rgb(109,199,255)"/><stop offset="100%" stop-opacity="1" style="stop-color:rgb(230,171,255)"/></linearGradient><rect x="398.087" y="-285.6" width="345.6" height="43.2" transform="matrix(1,0,0,1,0,0)" fill="url(#_lgradient_26)"/><linearGradient id="_lgradient_27" x1="50%" y1="-0.7928571428571424%" x2="49.99999999999998%" y2="118.35714285714285%"><stop offset="0%" stop-opacity="1" style="stop-color:rgb(26,109,255)"/><stop offset="100%" stop-opacity="1" style="stop-color:rgb(200,34,255)"/></linearGradient><path d=" M 736.487 -300 L 405.287 -300 C 393.378 -300 383.687 -290.309 383.687 -278.4 L 383.687 -48 C 383.687 -38.626 389.721 -30.706 398.087 -27.725 L 398.087 -19.2 C 398.087 -7.291 407.778 2.4 419.687 2.4 L 592.487 2.4 L 592.487 -12 L 419.687 -12 C 415.713 -12 412.487 -15.233 412.487 -19.2 L 412.487 -26.4 L 592.487 -26.4 L 592.487 -40.8 L 405.287 -40.8 C 401.313 -40.8 398.087 -44.033 398.087 -48 L 398.087 -228 L 743.687 -228 L 743.687 -48 C 743.687 -44.033 740.461 -40.8 736.487 -40.8 L 707.687 -40.8 L 707.687 -26.4 L 729.287 -26.4 L 729.287 -19.2 C 729.287 -15.233 726.061 -12 722.087 -12 L 707.687 -12 L 707.687 2.4 L 722.087 2.4 C 733.996 2.4 743.687 -7.291 743.687 -19.2 L 743.687 -27.725 C 752.293 -30.756 758.06 -38.876 758.087 -48 L 758.087 -278.4 C 758.087 -290.309 748.396 -300 736.487 -300 Z  M 398.087 -242.4 L 398.087 -278.4 C 398.087 -282.367 401.313 -285.6 405.287 -285.6 L 736.487 -285.6 C 740.461 -285.6 743.687 -282.367 743.687 -278.4 L 743.687 -242.4 L 398.087 -242.4 Z " fill="url(#_lgradient_27)"/><linearGradient id="_lgradient_28" x1="50%" y1="-37.12472075410013%" x2="49.99999999999997%" y2="99.20993842968451%"><stop offset="0%" stop-opacity="1" style="stop-color:rgb(26,109,255)"/><stop offset="100%" stop-opacity="1" style="stop-color:rgb(200,34,255)"/></linearGradient><path d=" M 668.814 -193.433 C 664.926 -200.23 657.921 -204.283 650.087 -204.283 C 642.253 -204.283 635.248 -200.23 631.353 -193.433 L 609.745 -155.712 C 607.875 -152.441 606.89 -148.738 606.887 -144.97 L 606.887 16.8 C 606.887 24.742 613.345 31.2 621.287 31.2 L 621.287 38.4 C 621.287 50.309 630.978 60 642.887 60 L 657.287 60 C 669.196 60 678.887 50.309 678.887 38.4 L 678.887 31.2 C 686.829 31.2 693.287 24.742 693.287 16.8 L 693.287 -144.97 C 693.287 -148.735 692.293 -152.45 690.436 -155.698 L 668.814 -193.433 Z  M 643.852 -186.276 C 645.724 -189.538 648.834 -189.883 650.087 -189.883 C 651.34 -189.883 654.45 -189.53 656.315 -186.276 L 677.937 -148.534 C 678.496 -147.54 678.807 -146.426 678.844 -145.286 C 659.31 -130.915 640.864 -130.915 621.33 -145.286 C 621.367 -146.429 621.681 -147.546 622.245 -148.541 L 643.852 -186.276 Z  M 664.487 38.4 C 664.487 42.367 661.261 45.6 657.287 45.6 L 642.887 45.6 C 638.913 45.6 635.687 42.367 635.687 38.4 L 635.687 31.2 L 664.487 31.2 L 664.487 38.4 Z  M 621.287 16.807 L 621.287 -128.1 C 630.798 -122.786 640.439 -120.079 650.087 -120.079 C 659.735 -120.079 669.376 -122.786 678.887 -128.1 L 678.887 16.8 L 621.287 16.807 Z " fill="url(#_lgradient_28)"/><linearGradient id="_lgradient_29" x1="50%" y1="-808.3249999999999%" x2="49.99999999999977%" y2="442.75%"><stop offset="0%" stop-opacity="1" style="stop-color:rgb(26,109,255)"/><stop offset="100%" stop-opacity="1" style="stop-color:rgb(200,34,255)"/></linearGradient><rect x="642.887" y="-69.6" width="14.4" height="28.8" transform="matrix(1,0,0,1,0,0)" fill="url(#_lgradient_29)"/><linearGradient id="_lgradient_30" x1="50%" y1="-716.65%" x2="49.99999999999954%" y2="1785.5%"><stop offset="0%" stop-opacity="1" style="stop-color:rgb(26,109,255)"/><stop offset="100%" stop-opacity="1" style="stop-color:rgb(200,34,255)"/></linearGradient><rect x="441.287" y="-199.2" width="100.8" height="14.4" transform="matrix(1,0,0,1,0,0)" fill="url(#_lgradient_30)"/><linearGradient id="_lgradient_31" x1="50%" y1="-916.6499999999999%" x2="49.99999999999954%" y2="1585.5%"><stop offset="0%" stop-opacity="1" style="stop-color:rgb(26,109,255)"/><stop offset="100%" stop-opacity="1" style="stop-color:rgb(200,34,255)"/></linearGradient><rect x="441.287" y="-170.4" width="100.8" height="14.4" transform="matrix(1,0,0,1,0,0)" fill="url(#_lgradient_31)"/><linearGradient id="_lgradient_32" x1="50%" y1="-1116.6499999999999%" x2="49.99999999999954%" y2="1385.5%"><stop offset="0%" stop-opacity="1" style="stop-color:rgb(26,109,255)"/><stop offset="100%" stop-opacity="1" style="stop-color:rgb(200,34,255)"/></linearGradient><rect x="441.287" y="-141.6" width="72" height="14.4" transform="matrix(1,0,0,1,0,0)" fill="url(#_lgradient_32)"/><linearGradient id="_lgradient_33" x1="50%" y1="-708.3249999999999%" x2="49.99999999999977%" y2="542.75%"><stop offset="0%" stop-opacity="1" style="stop-color:rgb(26,109,255)"/><stop offset="100%" stop-opacity="1" style="stop-color:rgb(200,34,255)"/></linearGradient><rect x="441.287" y="-98.4" width="14.4" height="28.8" transform="matrix(1,0,0,1,0,0)" fill="url(#_lgradient_33)"/><linearGradient id="_lgradient_34" x1="50%" y1="-708.3249999999999%" x2="49.99999999999977%" y2="542.75%"><stop offset="0%" stop-opacity="1" style="stop-color:rgb(26,109,255)"/><stop offset="100%" stop-opacity="1" style="stop-color:rgb(200,34,255)"/></linearGradient><rect x="470.087" y="-98.4" width="14.4" height="28.8" transform="matrix(1,0,0,1,0,0)" fill="url(#_lgradient_34)"/><linearGradient id="_lgradient_35" x1="50%" y1="-708.3249999999999%" x2="49.99999999999977%" y2="542.75%"><stop offset="0%" stop-opacity="1" style="stop-color:rgb(26,109,255)"/><stop offset="100%" stop-opacity="1" style="stop-color:rgb(200,34,255)"/></linearGradient><rect x="498.887" y="-98.4" width="14.4" height="28.8" transform="matrix(1,0,0,1,0,0)" fill="url(#_lgradient_35)"/><linearGradient id="_lgradient_36" x1="50.00312480469973%" y1="-83.325%" x2="50.003124804699496%" y2="1167.75%"><stop offset="0%" stop-opacity="1" style="stop-color:rgb(26,109,255)"/><stop offset="100%" stop-opacity="1" style="stop-color:rgb(200,34,255)"/></linearGradient><path d=" M 614.087 -278.4 C 608.781 -278.4 604.187 -275.484 601.689 -271.2 L 540.078 -271.2 C 537.58 -275.484 532.986 -278.4 527.68 -278.4 C 519.738 -278.4 513.28 -271.942 513.28 -264 C 513.28 -256.058 519.738 -249.6 527.68 -249.6 C 532.986 -249.6 537.58 -252.516 540.078 -256.8 L 601.689 -256.8 C 604.187 -252.516 608.781 -249.6 614.087 -249.6 C 622.029 -249.6 628.487 -256.058 628.487 -264 C 628.487 -271.942 622.029 -278.4 614.087 -278.4 Z " fill="url(#_lgradient_36)"/></g></svg>