<?xml version="1.0" encoding="UTF-8" standalone="no"?>
<!-- Generator: Gravit.io -->
<svg xmlns="http://www.w3.org/2000/svg" xmlns:xlink="http://www.w3.org/1999/xlink" style="isolation:isolate" viewBox="45 -203.451 129.831 120" width="129.831" height="120"><g id="Group"><linearGradient id="_lgradient_13" x1="50%" y1="-12.5%" x2="49.99999999999998%" y2="115.19999999999993%"><stop offset="0%" stop-opacity="1" style="stop-color:rgb(109,199,255)"/><stop offset="100%" stop-opacity="1" style="stop-color:rgb(230,171,255)"/></linearGradient><path d=" M 53.739 -158.354 C 53.739 -160.421 55.417 -162.099 57.484 -162.099 C 59.551 -162.099 61.229 -160.421 61.229 -158.354 C 61.229 -156.287 59.551 -154.609 57.484 -154.609 C 55.417 -154.609 53.739 -156.287 53.739 -158.354 Z " fill="url(#_lgradient_13)"/><linearGradient id="_lgradient_14" x1="50%" y1="0%" x2="49.99999999999998%" y2="108.70000000000016%"><stop offset="0%" stop-opacity="1" style="stop-color:rgb(109,199,255)"/><stop offset="100%" stop-opacity="1" style="stop-color:rgb(230,171,255)"/></linearGradient><path d=" M 53.739 -143.373 C 53.739 -145.44 55.417 -147.118 57.484 -147.118 C 59.551 -147.118 61.229 -145.44 61.229 -143.373 C 61.229 -141.306 59.551 -139.628 57.484 -139.628 C 55.417 -139.628 53.739 -141.306 53.739 -143.373 Z " fill="url(#_lgradient_14)"/><linearGradient id="_lgradient_15" x1="50%" y1="-10.39999999999992%" x2="49.99999999999998%" y2="108.10000000000014%"><stop offset="0%" stop-opacity="1" style="stop-color:rgb(109,199,255)"/><stop offset="100%" stop-opacity="1" style="stop-color:rgb(230,171,255)"/></linearGradient><path d=" M 53.739 -128.393 C 53.739 -130.46 55.417 -132.138 57.484 -132.138 C 59.551 -132.138 61.229 -130.46 61.229 -128.393 C 61.229 -126.326 59.551 -124.648 57.484 -124.648 C 55.417 -124.648 53.739 -126.326 53.739 -128.393 Z " fill="url(#_lgradient_15)"/><linearGradient id="_lgradient_16" x1="50%" y1="-1.0416381827324739%" x2="49.999999999999986%" y2="101.42499959828845%"><stop offset="0%" stop-opacity="1" style="stop-color:rgb(26,109,255)"/><stop offset="100%" stop-opacity="1" style="stop-color:rgb(200,34,255)"/></linearGradient><path d=" M 152.36 -133.259 L 152.36 -183.321 C 152.36 -187.451 149 -190.811 144.87 -190.811 L 142.271 -190.967 C 141.516 -190.965 140.802 -191.309 140.333 -191.901 L 133.342 -200.635 C 131.923 -202.42 129.764 -203.458 127.483 -203.451 L 52.503 -203.295 C 48.361 -203.291 45.004 -199.934 45 -195.792 L 45 -113.412 C 45 -109.283 48.361 -105.922 52.49 -105.922 L 115.036 -105.922 C 116.292 -93.323 126.953 -83.451 139.876 -83.451 L 149.863 -83.451 C 163.63 -83.451 174.831 -94.652 174.831 -108.419 C 174.831 -121.342 164.959 -132.003 152.36 -133.259 Z  M 129.066 -130.889 L 117.406 -130.889 L 117.406 -125.896 L 122.077 -125.896 C 118.09 -121.852 115.605 -116.566 115.036 -110.915 L 69.967 -110.915 L 69.967 -175.831 L 147.367 -175.831 L 147.367 -133.386 L 139.876 -133.386 C 136.13 -133.382 132.434 -132.528 129.066 -130.889 Z  M 129.44 -197.516 L 134.683 -190.967 L 84.846 -190.811 C 84.091 -190.809 83.376 -191.153 82.908 -191.745 L 77.66 -198.302 L 127.483 -198.458 C 128.252 -198.458 128.963 -198.116 129.44 -197.516 Z  M 49.993 -195.792 C 49.993 -197.176 51.12 -198.302 52.503 -198.302 L 70.057 -198.302 C 70.826 -198.302 71.538 -197.96 72.015 -197.36 L 79.006 -188.627 C 80.42 -186.846 82.572 -185.811 84.846 -185.818 L 144.87 -185.818 C 146.249 -185.818 147.367 -184.7 147.367 -183.321 L 147.367 -180.824 L 49.993 -180.824 L 49.993 -195.792 Z  M 49.993 -113.412 L 49.993 -175.831 L 64.974 -175.831 L 64.974 -110.915 L 52.49 -110.915 C 51.111 -110.915 49.993 -112.033 49.993 -113.412 Z  M 149.863 -88.445 L 139.876 -88.445 C 128.863 -88.445 119.902 -97.406 119.902 -108.419 C 119.902 -119.432 128.863 -128.393 139.876 -128.393 L 149.863 -128.393 C 160.877 -128.393 169.837 -119.432 169.837 -108.419 C 169.837 -97.406 160.877 -88.445 149.863 -88.445 Z " fill="url(#_lgradient_16)"/><linearGradient id="_lgradient_17" x1="50%" y1="-875%" x2="49.99999999999955%" y2="1584.1999999999998%"><stop offset="0%" stop-opacity="1" style="stop-color:rgb(26,109,255)"/><stop offset="100%" stop-opacity="1" style="stop-color:rgb(200,34,255)"/></linearGradient><rect x="87.445" y="-160.85" width="24.967" height="4.993" transform="matrix(1,0,0,1,0,0)" fill="url(#_lgradient_17)"/><linearGradient id="_lgradient_18" x1="50%" y1="-875%" x2="49.99999999999955%" y2="1584.1999999999998%"><stop offset="0%" stop-opacity="1" style="stop-color:rgb(26,109,255)"/><stop offset="100%" stop-opacity="1" style="stop-color:rgb(200,34,255)"/></linearGradient><rect x="117.406" y="-160.85" width="24.967" height="4.993" transform="matrix(1,0,0,1,0,0)" fill="url(#_lgradient_18)"/><linearGradient id="_lgradient_19" x1="50%" y1="-1075%" x2="49.99999999999955%" y2="1384.1999999999998%"><stop offset="0%" stop-opacity="1" style="stop-color:rgb(26,109,255)"/><stop offset="100%" stop-opacity="1" style="stop-color:rgb(200,34,255)"/></linearGradient><rect x="127.393" y="-150.863" width="14.98" height="4.993" transform="matrix(1,0,0,1,0,0)" fill="url(#_lgradient_19)"/><linearGradient id="_lgradient_20" x1="50%" y1="-1075%" x2="49.99999999999955%" y2="1384.1999999999998%"><stop offset="0%" stop-opacity="1" style="stop-color:rgb(26,109,255)"/><stop offset="100%" stop-opacity="1" style="stop-color:rgb(200,34,255)"/></linearGradient><rect x="107.419" y="-150.863" width="14.98" height="4.993" transform="matrix(1,0,0,1,0,0)" fill="url(#_lgradient_20)"/><linearGradient id="_lgradient_21" x1="50%" y1="-1275%" x2="49.99999999999955%" y2="1184.1999999999998%"><stop offset="0%" stop-opacity="1" style="stop-color:rgb(26,109,255)"/><stop offset="100%" stop-opacity="1" style="stop-color:rgb(200,34,255)"/></linearGradient><rect x="127.393" y="-140.876" width="14.98" height="4.993" transform="matrix(1,0,0,1,0,0)" fill="url(#_lgradient_21)"/><linearGradient id="_lgradient_22" x1="50%" y1="-1275%" x2="49.99999999999955%" y2="1184.1999999999998%"><stop offset="0%" stop-opacity="1" style="stop-color:rgb(26,109,255)"/><stop offset="100%" stop-opacity="1" style="stop-color:rgb(200,34,255)"/></linearGradient><rect x="107.419" y="-140.876" width="14.98" height="4.993" transform="matrix(1,0,0,1,0,0)" fill="url(#_lgradient_22)"/><linearGradient id="_lgradient_23" x1="50%" y1="-1475%" x2="49.99999999999955%" y2="984.1999999999998%"><stop offset="0%" stop-opacity="1" style="stop-color:rgb(26,109,255)"/><stop offset="100%" stop-opacity="1" style="stop-color:rgb(200,34,255)"/></linearGradient><rect x="87.445" y="-130.889" width="24.967" height="4.993" transform="matrix(1,0,0,1,0,0)" fill="url(#_lgradient_23)"/><linearGradient id="_lgradient_24" x1="49.999999999999915%" y1="-335.00000000000006%" x2="49.99999999999982%" y2="156.83999999999995%"><stop offset="0%" stop-opacity="1" style="stop-color:rgb(26,109,255)"/><stop offset="100%" stop-opacity="1" style="stop-color:rgb(200,34,255)"/></linearGradient><path d=" M 157.354 -113.412 C 157.354 -117.542 153.993 -120.902 149.863 -120.902 L 147.367 -120.902 L 147.367 -115.909 L 149.863 -115.909 C 151.242 -115.909 152.36 -114.791 152.36 -113.412 C 152.36 -111.495 153.084 -109.744 154.273 -108.419 C 153.04 -107.048 152.359 -105.269 152.36 -103.425 C 152.36 -102.046 151.242 -100.928 149.863 -100.928 L 147.367 -100.928 L 147.367 -95.935 L 149.863 -95.935 C 153.993 -95.935 157.354 -99.296 157.354 -103.425 C 157.354 -104.804 158.472 -105.922 159.85 -105.922 L 162.347 -105.922 L 162.347 -110.915 L 159.85 -110.915 C 158.472 -110.915 157.354 -112.033 157.354 -113.412 Z " fill="url(#_lgradient_24)"/><linearGradient id="_lgradient_25" x1="50%" y1="-335.00000000000006%" x2="49.999999999999915%" y2="156.83999999999995%"><stop offset="0%" stop-opacity="1" style="stop-color:rgb(26,109,255)"/><stop offset="100%" stop-opacity="1" style="stop-color:rgb(200,34,255)"/></linearGradient><path d=" M 132.386 -113.412 C 132.386 -112.033 131.268 -110.915 129.889 -110.915 L 127.393 -110.915 L 127.393 -105.922 L 129.889 -105.922 C 131.268 -105.922 132.386 -104.804 132.386 -103.425 C 132.386 -99.296 135.747 -95.935 139.876 -95.935 L 142.373 -95.935 L 142.373 -100.928 L 139.876 -100.928 C 138.498 -100.928 137.38 -102.046 137.38 -103.425 C 137.38 -105.343 136.656 -107.093 135.467 -108.419 C 136.7 -109.79 137.381 -111.569 137.38 -113.412 C 137.38 -114.791 138.498 -115.909 139.876 -115.909 L 142.373 -115.909 L 142.373 -120.902 L 139.876 -120.902 C 135.747 -120.902 132.386 -117.542 132.386 -113.412 Z " fill="url(#_lgradient_25)"/></g></svg>