<?xml version="1.0" standalone="no"?><!-- Generator: Gravit.io --><svg xmlns="http://www.w3.org/2000/svg" xmlns:xlink="http://www.w3.org/1999/xlink" style="isolation:isolate" viewBox="184 -260.269 52 52" width="52" height="52"><g id="Group"><linearGradient id="_lgradient_4" x1="50%" y1="-3.203846153846146%" x2="49.99999999999998%" y2="102.61153846153847%"><stop offset="0%" stop-opacity="1" style="stop-color:rgb(109,199,255)"/><stop offset="100%" stop-opacity="1" style="stop-color:rgb(230,171,255)"/></linearGradient><path d=" M 210 -243.629 C 204.84 -243.629 200.64 -239.43 200.64 -234.269 C 200.64 -229.108 204.84 -224.909 210 -224.909 C 215.162 -224.909 219.36 -229.108 219.36 -234.269 C 219.36 -239.43 215.162 -243.629 210 -243.629 Z " fill="url(#_lgradient_4)"/><linearGradient id="_lgradient_5" x1="50%" y1="-1.8404907975460127%" x2="49.999999999999986%" y2="102.15460122699386%"><stop offset="0%" stop-opacity="1" style="stop-color:rgb(109,199,255)"/><stop offset="100%" stop-opacity="1" style="stop-color:rgb(230,171,255)"/></linearGradient><path d=" M 222.48 -208.269 L 197.52 -208.269 C 190.065 -208.269 184 -214.334 184 -221.789 L 184 -246.749 C 184 -254.204 190.065 -260.269 197.52 -260.269 L 222.48 -260.269 C 229.935 -260.269 236 -254.204 236 -246.749 L 236 -221.789 C 236 -214.334 229.935 -208.269 222.48 -208.269 M 210 -220.749 C 202.545 -220.749 196.48 -226.814 196.48 -234.269 C 196.48 -241.724 202.545 -247.789 210 -247.789 C 217.455 -247.789 223.52 -241.724 223.52 -234.269 C 223.52 -226.814 217.455 -220.749 210 -220.749 M 222.48 -208.269 Z  M 221.44 -248.829 C 221.44 -250.551 222.838 -251.949 224.56 -251.949 C 226.282 -251.949 227.68 -250.551 227.68 -248.829 C 227.68 -247.107 226.282 -245.709 224.56 -245.709 C 222.838 -245.709 221.44 -247.107 221.44 -248.829 Z " fill-rule="evenodd" fill="url(#_lgradient_5)"/></g></svg>