<?xml version="1.0" encoding="UTF-8" standalone="no"?>
<!-- Generator: Gravit.io -->
<svg xmlns="http://www.w3.org/2000/svg" xmlns:xlink="http://www.w3.org/1999/xlink" style="isolation:isolate" viewBox="53 49.491 174 120" width="174" height="120"><g id="Group"><linearGradient id="_lgradient_19" x1="49.51034482758621%" y1="-2.0750000000000046%" x2="50.372413793103455%" y2="102.61250000000051%"><stop offset="0%" stop-opacity="1" style="stop-color:rgb(26,109,255)"/><stop offset="100%" stop-opacity="1" style="stop-color:rgb(200,34,255)"/></linearGradient><path d=" M 212 130.491 L 206 130.491 L 206 163.491 L 173 163.491 L 173 133.188 C 179.978 131.753 184.99 125.615 185 118.491 C 185 114.507 183.413 110.901 180.866 108.21 L 200.684 83.439 C 202.352 84.308 204.146 84.909 206 85.221 L 206 118.491 L 212 118.491 L 212 85.221 C 220.499 83.787 227 76.395 227 67.491 C 227 57.564 218.927 49.491 209 49.491 C 199.073 49.491 191 57.564 191 67.491 C 191 72.255 192.875 76.581 195.905 79.803 L 175.958 104.739 C 171.314 102.713 165.959 103.184 161.741 105.99 L 133.655 77.904 C 135.83 74.868 137 71.226 137 67.491 C 137 57.564 128.927 49.491 119 49.491 C 109.073 49.491 101 57.564 101 67.491 C 101 71.373 102.248 74.961 104.345 77.904 L 76.259 105.99 C 73.813 104.361 70.939 103.492 68 103.491 C 59.729 103.491 53 110.22 53 118.491 C 53.012 125.615 58.022 131.752 65 133.188 L 65 163.491 L 53 163.491 L 53 169.491 L 227 169.491 L 227 163.491 L 212 163.491 L 212 130.491 Z  M 209 55.491 C 215.618 55.491 221 60.873 221 67.491 C 221 74.109 215.618 79.491 209 79.491 C 202.382 79.491 197 74.109 197 67.491 C 197 60.873 202.382 55.491 209 55.491 Z  M 170 109.491 C 174.962 109.491 179 113.529 179 118.491 C 179 123.453 174.962 127.491 170 127.491 C 165.038 127.491 161 123.453 161 118.491 C 161 113.529 165.038 109.491 170 109.491 Z  M 119 55.491 C 125.618 55.491 131 60.873 131 67.491 C 131 74.109 125.618 79.491 119 79.491 C 112.382 79.491 107 74.109 107 67.491 C 107 60.873 112.382 55.491 119 55.491 Z  M 59 118.491 C 59 113.529 63.038 109.491 68 109.491 C 72.962 109.491 77 113.529 77 118.491 C 77 123.453 72.962 127.491 68 127.491 C 63.038 127.491 59 123.453 59 118.491 Z  M 71 133.188 C 77.978 131.753 82.99 125.615 83 118.491 C 82.999 115.552 82.13 112.679 80.501 110.232 L 108.587 82.146 C 110.793 83.719 113.328 84.771 116 85.221 L 116 118.491 L 122 118.491 L 122 85.221 C 124.672 84.771 127.207 83.719 129.413 82.146 L 157.499 110.232 C 155.87 112.679 155.001 115.552 155 118.491 C 155.012 125.615 160.022 131.752 167 133.188 L 167 163.491 L 122 163.491 L 122 130.491 L 116 130.491 L 116 163.491 L 71 163.491 L 71 133.188 Z " fill="url(#_lgradient_19)"/><linearGradient id="_lgradient_20" x1="50%" y1="-8.325000000000005%" x2="49.99999999999998%" y2="117.30000000000001%"><stop offset="0%" stop-opacity="1" style="stop-color:rgb(109,199,255)"/><stop offset="100%" stop-opacity="1" style="stop-color:rgb(230,171,255)"/></linearGradient><path d=" M 113 67.491 C 113 64.18 115.689 61.491 119 61.491 C 122.311 61.491 125 64.18 125 67.491 C 125 70.803 122.311 73.491 119 73.491 C 115.689 73.491 113 70.803 113 67.491 Z " fill="url(#_lgradient_20)"/><linearGradient id="_lgradient_21" x1="50%" y1="-8.325000000000005%" x2="49.99999999999998%" y2="117.30000000000001%"><stop offset="0%" stop-opacity="1" style="stop-color:rgb(109,199,255)"/><stop offset="100%" stop-opacity="1" style="stop-color:rgb(230,171,255)"/></linearGradient><path d=" M 203 67.491 C 203 64.18 205.689 61.491 209 61.491 C 212.311 61.491 215 64.18 215 67.491 C 215 70.803 212.311 73.491 209 73.491 C 205.689 73.491 203 70.803 203 67.491 Z " fill="url(#_lgradient_21)"/><linearGradient id="_lgradient_22" x1="50%" y1="-2.78333333333336%" x2="49.99999999999998%" y2="105.69999999999995%"><stop offset="0%" stop-opacity="1" style="stop-color:rgb(109,199,255)"/><stop offset="100%" stop-opacity="1" style="stop-color:rgb(230,171,255)"/></linearGradient><path d=" M 161 118.491 C 161 113.524 165.033 109.491 170 109.491 C 174.967 109.491 179 113.524 179 118.491 C 179 123.458 174.967 127.491 170 127.491 C 165.033 127.491 161 123.458 161 118.491 Z " fill="url(#_lgradient_22)"/><linearGradient id="_lgradient_23" x1="50%" y1="-2.78333333333336%" x2="49.99999999999998%" y2="105.69999999999995%"><stop offset="0%" stop-opacity="1" style="stop-color:rgb(109,199,255)"/><stop offset="100%" stop-opacity="1" style="stop-color:rgb(230,171,255)"/></linearGradient><path d=" M 59 118.491 C 59 113.524 63.033 109.491 68 109.491 C 72.967 109.491 77 113.524 77 118.491 C 77 123.458 72.967 127.491 68 127.491 C 63.033 127.491 59 123.458 59 118.491 Z " fill="url(#_lgradient_23)"/></g></svg>