<?xml version="1.0" standalone="no"?><!-- Generator: Gravit.io --><svg xmlns="http://www.w3.org/2000/svg" xmlns:xlink="http://www.w3.org/1999/xlink" style="isolation:isolate" viewBox="-36.775 121.757 1076.775 242.248" width="1076.775" height="242.248"><g id="Group"><g id="Group"><linearGradient id="_lgradient_10" x1="50.000719723847155%" y1="-5.360553584131433%" x2="50.00071972384713%" y2="107.83213091115556%"><stop offset="0%" stop-opacity="1" style="stop-color:rgb(109,199,255)"/><stop offset="100%" stop-opacity="1" style="stop-color:rgb(230,171,255)"/></linearGradient><path d=" M 609.487 200.05 L 525.332 162.681 C 523.692 161.954 521.794 161.954 520.154 162.681 L 435.998 200.05 C 434.974 200.486 434.316 201.449 434.316 202.509 C 434.316 203.57 434.974 204.533 435.998 204.969 L 520.154 242.338 C 521.792 243.064 523.699 243.064 525.332 242.338 L 609.487 204.969 C 610.507 204.529 611.162 203.568 611.162 202.509 C 611.162 201.451 610.507 200.49 609.487 200.05 Z " fill="url(#_lgradient_10)"/><linearGradient id="_lgradient_11" x1="50%" y1="-1.1892020274432813%" x2="49.999999999999986%" y2="99.77381769387523%"><stop offset="0%" stop-opacity="1" style="stop-color:rgb(26,109,255)"/><stop offset="100%" stop-opacity="1" style="stop-color:rgb(200,34,255)"/></linearGradient><path d=" M 687.775 297.995 L 687.775 294.788 C 687.775 290.537 685.3 286.858 681.663 284.856 L 681.663 217.225 L 693.148 212.335 C 697.372 210.535 700 206.769 700 202.507 C 700 198.244 697.372 194.478 693.148 192.684 L 530.27 123.289 C 525.483 121.247 519.996 121.247 515.209 123.289 L 352.332 192.684 C 348.108 194.484 345.48 198.25 345.48 202.507 C 345.48 206.763 348.108 210.535 352.332 212.329 L 388.267 227.642 L 388.267 265.91 C 388.267 272.837 394.092 278.385 399.874 280.813 L 510.136 326.994 C 513.957 328.583 518.088 329.399 522.263 329.388 C 526.42 329.388 530.57 328.592 534.353 327.006 L 645.447 280.813 C 651.302 278.356 657.213 272.796 657.213 265.91 L 657.213 227.642 L 669.438 222.434 L 669.438 284.862 C 665.801 286.863 663.325 290.543 663.325 294.794 L 663.325 298.001 C 656.052 302.003 651.101 309.363 651.101 317.864 L 651.101 340.935 C 651.101 353.658 662.066 364.005 675.55 364.005 C 689.034 364.005 700 353.658 700 340.935 L 700 317.864 C 700 309.357 695.049 301.998 687.775 297.995 Z  M 690.636 197.939 L 688.136 203.199 L 688.124 203.193 L 690.636 197.939 Z  M 520.246 133.797 C 521.836 133.134 523.649 133.134 525.24 133.797 L 686.504 202.507 L 525.234 271.216 C 523.643 271.88 521.83 271.88 520.24 271.216 L 358.976 202.507 L 520.246 133.797 Z  M 614.426 245.873 L 614.426 281.113 L 577.752 296.363 L 577.752 261.503 L 614.426 245.873 Z  M 467.728 261.498 L 467.728 296.611 L 431.054 281.252 L 431.054 245.873 L 467.728 261.498 Z  M 400.491 265.91 L 400.491 232.85 L 418.829 240.665 L 418.829 276.136 L 404.837 270.276 C 402.276 269.197 400.491 267.109 400.491 265.91 Z  M 479.953 301.732 L 479.953 266.706 L 515.209 281.724 C 515.668 281.921 516.157 282.007 516.627 282.163 L 516.627 316.907 C 516.12 316.745 515.588 316.653 515.105 316.451 L 479.953 301.732 Z  M 529.402 316.463 C 529.225 316.538 529.03 316.561 528.852 316.63 L 528.852 282.169 C 529.323 282.013 529.812 281.926 530.264 281.73 L 565.527 266.706 L 565.527 301.444 L 529.402 316.463 Z  M 644.988 265.91 C 644.988 267.075 643.063 269.186 640.502 270.264 L 626.651 276.026 L 626.651 240.665 L 644.988 232.856 L 644.988 265.91 Z  M 675.55 306.323 C 682.292 306.323 687.775 311.497 687.775 317.858 L 687.775 323.626 L 663.325 323.626 L 663.325 317.858 C 663.325 311.503 668.808 306.323 675.55 306.323 Z  M 675.55 352.464 C 668.808 352.464 663.325 347.29 663.325 340.929 L 663.325 335.161 L 687.775 335.161 L 687.775 340.929 C 687.775 347.29 682.292 352.464 675.55 352.464 Z " fill="url(#_lgradient_11)"/></g><g id="Group"><linearGradient id="_lgradient_12" x1="50%" y1="-1.1892020274432813%" x2="49.999999999999986%" y2="99.77381769387523%"><stop offset="0%" stop-opacity="1" style="stop-color:rgb(26,109,255)"/><stop offset="100%" stop-opacity="1" style="stop-color:rgb(200,34,255)"/></linearGradient><path d=" M 38.418 230.764 L 16.246 286.053 L -22.33 189.86 Q -23.315 187.562 -25.203 186.166 Q -27.09 184.771 -29.389 184.771 Q -32.836 184.771 -34.806 186.823 Q -36.775 188.875 -36.775 192.322 Q -36.775 193.799 -36.283 195.113 L 4.263 293.44 Q 7.71 300.991 14.44 300.991 L 18.052 300.991 Q 24.782 300.991 28.229 293.44 L 46.246 249.748 L 64.263 293.44 Q 67.71 300.991 74.44 300.991 L 78.052 300.991 Q 84.782 300.991 88.229 293.44 L 128.775 195.113 Q 129.267 193.799 129.267 192.322 Q 129.267 188.875 127.297 186.823 Q 125.328 184.771 121.88 184.771 Q 119.582 184.771 117.694 186.166 Q 115.807 187.562 114.822 189.86 L 76.246 286.053 L 54.074 230.764 L 68.775 195.113 Q 69.267 193.799 69.267 192.322 Q 69.267 188.875 67.297 186.823 Q 65.328 184.771 61.88 184.771 Q 59.582 184.771 57.695 186.166 Q 55.807 187.562 54.822 189.86 L 46.246 211.245 L 37.67 189.86 Q 36.685 187.562 34.797 186.166 Q 32.91 184.771 30.611 184.771 Q 27.164 184.771 25.194 186.823 Q 23.225 188.875 23.225 192.322 Q 23.225 193.799 23.717 195.113 L 38.418 230.764 Z " fill="url(#_lgradient_12)"/><linearGradient id="_lgradient_13" x1="50%" y1="-1.1892020274432813%" x2="49.999999999999986%" y2="99.77381769387523%"><stop offset="0%" stop-opacity="1" style="stop-color:rgb(26,109,255)"/><stop offset="100%" stop-opacity="1" style="stop-color:rgb(200,34,255)"/></linearGradient><path d=" M 153.358 300.991 L 153.358 300.991 Q 150.239 300.991 148.105 298.857 L 148.105 298.857 L 148.105 298.857 Q 145.971 296.723 145.971 293.604 L 145.971 293.604 L 145.971 193.964 L 145.971 193.964 Q 145.971 190.845 148.105 188.629 L 148.105 188.629 L 148.105 188.629 Q 150.239 186.413 153.358 186.413 L 153.358 186.413 L 219.184 186.413 L 219.184 186.413 Q 222.138 186.413 224.19 188.464 L 224.19 188.464 L 224.19 188.464 Q 226.242 190.516 226.242 193.471 L 226.242 193.471 L 226.242 193.471 Q 226.242 196.426 224.19 198.396 L 224.19 198.396 L 224.19 198.396 Q 222.138 200.366 219.184 200.366 L 219.184 200.366 L 160.909 200.366 L 160.909 236.643 L 213.274 236.643 L 213.274 236.643 Q 216.229 236.643 218.281 238.695 L 218.281 238.695 L 218.281 238.695 Q 220.333 240.747 220.333 243.702 L 220.333 243.702 L 220.333 243.702 Q 220.333 246.657 218.281 248.626 L 218.281 248.626 L 218.281 248.626 Q 216.229 250.596 213.274 250.596 L 213.274 250.596 L 160.909 250.596 L 160.909 287.038 L 219.184 287.038 L 219.184 287.038 Q 222.138 287.038 224.19 289.09 L 224.19 289.09 L 224.19 289.09 Q 226.242 291.142 226.242 294.097 L 226.242 294.097 L 226.242 294.097 Q 226.242 297.052 224.19 299.021 L 224.19 299.021 L 224.19 299.021 Q 222.138 300.991 219.184 300.991 L 219.184 300.991 L 153.358 300.991 Z " fill="url(#_lgradient_13)"/><linearGradient id="_lgradient_14" x1="50%" y1="-1.1892020274432813%" x2="49.999999999999986%" y2="99.77381769387523%"><stop offset="0%" stop-opacity="1" style="stop-color:rgb(26,109,255)"/><stop offset="100%" stop-opacity="1" style="stop-color:rgb(200,34,255)"/></linearGradient><path d=" M 258.088 300.991 Q 254.969 300.991 252.835 298.857 Q 250.701 296.723 250.701 293.604 L 250.701 193.964 Q 250.701 190.845 252.835 188.629 Q 254.969 186.413 258.088 186.413 L 296.828 186.413 Q 314.392 186.413 323.995 194.456 Q 333.598 202.5 333.598 216.124 Q 333.598 225.645 329.084 231.965 Q 324.57 238.285 317.511 241.404 Q 327.36 244.523 333.68 251.417 Q 340 258.312 340 268.817 Q 340 283.919 329.823 292.455 Q 319.645 300.991 297.813 300.991 L 258.088 300.991 M 265.639 235.987 L 292.888 235.987 Q 307.498 235.987 313.407 231.062 Q 319.317 226.138 319.317 217.273 Q 319.317 209.558 312.997 204.962 Q 306.677 200.366 295.679 200.366 L 265.639 200.366 L 265.639 235.987 M 258.088 300.991 Z  M 265.639 287.038 L 296.335 287.038 Q 312.258 287.038 318.906 282.114 Q 325.555 277.189 325.555 268.161 Q 325.555 249.447 296.5 249.447 L 265.639 249.447 L 265.639 287.038 Z " fill-rule="evenodd" fill="url(#_lgradient_14)"/></g><g id="Group"><linearGradient id="_lgradient_15" x1="50%" y1="-1.1892020274432813%" x2="49.999999999999986%" y2="99.77381769387523%"><stop offset="0%" stop-opacity="1" style="stop-color:rgb(26,109,255)"/><stop offset="100%" stop-opacity="1" style="stop-color:rgb(200,34,255)"/></linearGradient><path d=" M 725.982 299.759 L 725.982 299.759 Q 722.864 299.759 720.73 297.625 L 720.73 297.625 L 720.73 297.625 Q 718.596 295.491 718.596 292.372 L 718.596 292.372 L 718.596 192.734 L 718.596 192.734 Q 718.596 189.615 720.73 187.399 L 720.73 187.399 L 720.73 187.399 Q 722.864 185.183 725.982 185.183 L 725.982 185.183 L 791.806 185.183 L 791.806 185.183 Q 794.761 185.183 796.813 187.235 L 796.813 187.235 L 796.813 187.235 Q 798.865 189.286 798.865 192.241 L 798.865 192.241 L 798.865 192.241 Q 798.865 195.196 796.813 197.166 L 796.813 197.166 L 796.813 197.166 Q 794.761 199.135 791.806 199.135 L 791.806 199.135 L 733.533 199.135 L 733.533 235.412 L 785.897 235.412 L 785.897 235.412 Q 788.852 235.412 790.903 237.464 L 790.903 237.464 L 790.903 237.464 Q 792.955 239.516 792.955 242.471 L 792.955 242.471 L 792.955 242.471 Q 792.955 245.425 790.903 247.395 L 790.903 247.395 L 790.903 247.395 Q 788.852 249.365 785.897 249.365 L 785.897 249.365 L 733.533 249.365 L 733.533 285.806 L 791.806 285.806 L 791.806 285.806 Q 794.761 285.806 796.813 287.858 L 796.813 287.858 L 796.813 287.858 Q 798.865 289.91 798.865 292.865 L 798.865 292.865 L 798.865 292.865 Q 798.865 295.819 796.813 297.789 L 796.813 297.789 L 796.813 297.789 Q 794.761 299.759 791.806 299.759 L 791.806 299.759 L 725.982 299.759 Z  M 830.71 299.759 L 830.71 299.759 Q 827.591 299.759 825.457 297.625 L 825.457 297.625 L 825.457 297.625 Q 823.323 295.491 823.323 292.372 L 823.323 292.372 L 823.323 192.734 L 823.323 192.734 Q 823.323 189.615 825.457 187.399 L 825.457 187.399 L 825.457 187.399 Q 827.591 185.183 830.71 185.183 L 830.71 185.183 L 863.704 185.183 L 863.704 185.183 Q 882.417 185.183 895.467 193.472 L 895.467 193.472 L 895.467 193.472 Q 908.516 201.762 915.082 214.894 L 915.082 214.894 L 915.082 214.894 Q 921.648 228.026 921.648 242.471 L 921.648 242.471 L 921.648 242.471 Q 921.648 256.916 915.082 270.048 L 915.082 270.048 L 915.082 270.048 Q 908.516 283.18 895.467 291.469 L 895.467 291.469 L 895.467 291.469 Q 882.417 299.759 863.704 299.759 L 863.704 299.759 L 830.71 299.759 Z  M 838.261 285.806 L 861.898 285.806 L 861.898 285.806 Q 875.358 285.806 885.536 280.307 L 885.536 280.307 L 885.536 280.307 Q 895.713 274.808 901.294 265.041 L 901.294 265.041 L 901.294 265.041 Q 906.875 255.274 906.875 242.471 L 906.875 242.471 L 906.875 242.471 Q 906.875 229.667 901.294 219.9 L 901.294 219.9 L 901.294 219.9 Q 895.713 210.133 885.536 204.634 L 885.536 204.634 L 885.536 204.634 Q 875.358 199.135 861.898 199.135 L 861.898 199.135 L 838.261 199.135 L 838.261 285.806 Z  M 992.889 301.4 L 992.889 301.4 Q 981.235 301.4 970.401 296.476 L 970.401 296.476 L 970.401 296.476 Q 959.567 291.551 952.673 281.456 L 952.673 281.456 L 952.673 281.456 Q 945.778 271.361 945.778 256.752 L 945.778 256.752 L 945.778 191.913 L 945.778 191.913 Q 945.778 188.794 947.912 186.578 L 947.912 186.578 L 947.912 186.578 Q 950.046 184.362 953.165 184.362 L 953.165 184.362 L 953.165 184.362 Q 956.284 184.362 958.5 186.578 L 958.5 186.578 L 958.5 186.578 Q 960.716 188.794 960.716 191.913 L 960.716 191.913 L 960.716 257.244 L 960.716 257.244 Q 960.716 267.093 965.23 273.987 L 965.23 273.987 L 965.23 273.987 Q 969.744 280.882 977.131 284.329 L 977.131 284.329 L 977.131 284.329 Q 984.518 287.776 992.889 287.776 L 992.889 287.776 L 992.889 287.776 Q 1001.261 287.776 1008.647 284.329 L 1008.647 284.329 L 1008.647 284.329 Q 1016.034 280.882 1020.548 273.987 L 1020.548 273.987 L 1020.548 273.987 Q 1025.062 267.093 1025.062 257.244 L 1025.062 257.244 L 1025.062 191.913 L 1025.062 191.913 Q 1025.062 188.794 1027.196 186.578 L 1027.196 186.578 L 1027.196 186.578 Q 1029.33 184.362 1032.449 184.362 L 1032.449 184.362 L 1032.449 184.362 Q 1035.568 184.362 1037.784 186.578 L 1037.784 186.578 L 1037.784 186.578 Q 1040 188.794 1040 191.913 L 1040 191.913 L 1040 256.752 L 1040 256.752 Q 1040 271.361 1033.106 281.456 L 1033.106 281.456 L 1033.106 281.456 Q 1026.211 291.551 1015.378 296.476 L 1015.378 296.476 L 1015.378 296.476 Q 1004.544 301.4 992.889 301.4 L 992.889 301.4 Z " fill-rule="evenodd" fill="url(#_lgradient_15)"/></g></g></svg>