<?xml version="1.0" standalone="no"?><!-- Generator: Gravit.io --><svg xmlns="http://www.w3.org/2000/svg" xmlns:xlink="http://www.w3.org/1999/xlink" style="isolation:isolate" viewBox="335 7 52 46" width="52" height="46"><g id="Group"><linearGradient id="_lgradient_0" x1="50%" y1="118.75%" x2="50.000000000000014%" y2="-43.85000000000048%"><stop offset="0%" stop-opacity="1" style="stop-color:rgb(230,171,255)"/><stop offset="100%" stop-opacity="1" style="stop-color:rgb(109,199,255)"/></linearGradient><rect x="339" y="25" width="44" height="2" transform="matrix(1,0,0,1,0,0)" fill="url(#_lgradient_0)"/><linearGradient id="_lgradient_1" x1="50.00000000001849%" y1="262.96643197527436%" x2="50.00000000001851%" y2="-17.166592648329583%"><stop offset="0%" stop-opacity="1" style="stop-color:rgb(26,109,255)"/><stop offset="100%" stop-opacity="1" style="stop-color:rgb(200,34,255)"/></linearGradient><path d=" M 384 21 L 338 21 C 336.343 21 335 22.343 335 24 L 335 28 C 335 29.657 336.343 31 338 31 L 384 31 C 385.657 31 387 29.657 387 28 L 387 24 C 387 22.343 385.657 21 384 21 Z  M 385 28 C 385 28.552 384.552 29 384 29 L 338 29 C 337.448 29 337 28.552 337 28 L 337 24 C 337 23.448 337.448 23 338 23 L 384 23 C 384.552 23 385 23.448 385 24 L 385 28 Z  M 384 7 L 338 7 C 336.346 7 335 8.338 335 9.983 L 335 13.992 C 335 15.65 336.342 16.996 338 17 L 384 17 C 385.654 17 387 15.65 387 13.992 L 387 9.983 C 386.993 8.332 385.651 6.997 384 7 Z  M 385 13.992 C 385 14.547 384.551 15 384 15 L 338 15 C 337.449 15 337 14.547 337 13.992 L 337 9.983 C 336.999 9.719 337.105 9.466 337.293 9.281 C 337.481 9.096 337.736 8.995 338 9 L 352.012 9 Q 352.937 9 384 9 C 384.561 9 385 9.432 385 9.983 L 385 13.992 Z  M 361.002 53 C 359.467 53.005 358.019 52.287 357.095 51.061 L 352.802 45.405 C 352.616 45.154 352.324 45.004 352.012 45 L 338 45 C 336.346 45 335 43.662 335 42.017 L 335 38.008 C 335 36.35 336.342 35.004 338 35 L 384 35 C 385.654 35 387 36.35 387 38.008 L 387 42.017 C 386.993 43.668 385.651 45.003 384 45 L 369.988 45 C 369.684 45 369.389 45.151 369.197 45.402 L 364.904 51.062 C 363.982 52.287 362.535 53.005 361.002 53 Z  M 338 37 C 337.449 37 337 37.453 337 38.008 L 337 42.017 C 337 42.568 337.439 43 338 43 L 352.012 43 C 352.937 43 353.828 43.447 354.395 44.195 L 358.688 49.851 C 359.235 50.577 360.093 51.003 361.002 51 C 361.916 51 362.757 50.582 363.311 49.853 L 367.604 44.194 C 368.17 43.447 369.051 43.006 369.988 43 L 384 43 C 384.561 43 385 42.568 385 42.017 L 385 38.008 C 385 37.453 384.551 37 384 37 L 338 37 Z " fill="url(#_lgradient_1)"/><linearGradient id="_lgradient_2" x1="50%" y1="103.01823010986352%" x2="50.000000000000014%" y2="-5.650126765664676%"><stop offset="0%" stop-opacity="1" style="stop-color:rgb(230,171,255)"/><stop offset="100%" stop-opacity="1" style="stop-color:rgb(109,199,255)"/></linearGradient><path d=" M 383 11 L 383 13 L 339 13 L 339 11 L 383 11 Z " fill="url(#_lgradient_2)"/><linearGradient id="_lgradient_3" x1="50%" y1="-3.0182301098635733%" x2="49.99999999999998%" y2="105.65012676566434%"><stop offset="0%" stop-opacity="1" style="stop-color:rgb(109,199,255)"/><stop offset="100%" stop-opacity="1" style="stop-color:rgb(230,171,255)"/></linearGradient><path d=" M 361 47.283 C 360.355 47.282 359.75 46.971 359.374 46.447 L 355.785 41.42 C 355.597 41.157 355.294 41.001 354.971 41 L 339 41 L 339 39 L 354.971 39 C 355.936 39 356.849 39.47 357.411 40.258 L 361 45.284 L 364.587 40.258 C 365.151 39.47 366.06 39.002 367.029 39 L 383 39 L 383 41 L 367.029 41 C 366.706 41.001 366.403 41.158 366.216 41.421 L 362.628 46.446 C 362.252 46.971 361.646 47.282 361 47.283 Z " fill="url(#_lgradient_3)"/></g></svg>