<?xml version="1.0" standalone="no"?><!-- Generator: Gravit.io --><svg xmlns="http://www.w3.org/2000/svg" xmlns:xlink="http://www.w3.org/1999/xlink" style="isolation:isolate" viewBox="268 -56.189 52 38" width="52" height="38"><g id="Group"><linearGradient id="_lgradient_37" x1="50%" y1="118.75%" x2="50.000000000000014%" y2="-43.85000000000048%"><stop offset="0%" stop-opacity="1" style="stop-color:rgb(230,171,255)"/><stop offset="100%" stop-opacity="1" style="stop-color:rgb(109,199,255)"/></linearGradient><rect x="272" y="-38.189" width="44" height="2" transform="matrix(1,0,0,1,0,0)" fill="url(#_lgradient_37)"/><linearGradient id="_lgradient_38" x1="50.00000000001849%" y1="262.96643197527436%" x2="50.00000000001851%" y2="-17.166592648329583%"><stop offset="0%" stop-opacity="1" style="stop-color:rgb(26,109,255)"/><stop offset="100%" stop-opacity="1" style="stop-color:rgb(200,34,255)"/></linearGradient><path d=" M 317 -42.189 L 271 -42.189 C 269.343 -42.189 268 -40.845 268 -39.189 L 268 -35.189 C 268 -33.532 269.343 -32.189 271 -32.189 L 317 -32.189 C 318.657 -32.189 320 -33.532 320 -35.189 L 320 -39.189 C 320 -40.845 318.657 -42.189 317 -42.189 Z  M 318 -35.189 C 318 -34.636 317.552 -34.189 317 -34.189 L 271 -34.189 C 270.448 -34.189 270 -34.636 270 -35.189 L 270 -39.189 C 270 -39.741 270.448 -40.189 271 -40.189 L 317 -40.189 C 317.552 -40.189 318 -39.741 318 -39.189 L 318 -35.189 Z  M 317 -56.189 L 271 -56.189 C 269.346 -56.189 268 -54.851 268 -53.206 L 268 -49.197 C 268 -47.538 269.342 -46.193 271 -46.189 L 317 -46.189 C 318.654 -46.189 320 -47.539 320 -49.197 L 320 -53.206 C 319.993 -54.857 318.651 -56.191 317 -56.189 Z  M 318 -49.197 C 318 -48.642 317.551 -48.189 317 -48.189 L 271 -48.189 C 270.449 -48.189 270 -48.642 270 -49.197 L 270 -53.206 C 269.999 -53.469 270.105 -53.722 270.293 -53.907 C 270.481 -54.092 270.736 -54.194 271 -54.189 L 317 -54.189 C 317.561 -54.189 318 -53.757 318 -53.206 L 318 -49.197 Z  M 271 -18.189 C 269.346 -18.189 268 -19.527 268 -21.172 L 268 -25.181 C 268 -26.839 269.342 -28.184 271 -28.189 L 317 -28.189 C 318.654 -28.189 320 -26.839 320 -25.181 L 320 -21.172 C 319.993 -19.52 318.651 -18.186 317 -18.189 L 271 -18.189 Z  M 271 -26.189 C 270.449 -26.189 270 -25.736 270 -25.181 L 270 -21.172 C 270 -20.621 270.439 -20.189 271 -20.189 L 317 -20.189 C 317.561 -20.189 318 -20.621 318 -21.172 L 318 -25.181 C 318 -25.736 317.551 -26.189 317 -26.189 L 271 -26.189 Z " fill="url(#_lgradient_38)"/><linearGradient id="_lgradient_39" x1="50%" y1="103.01823010986352%" x2="50.000000000000014%" y2="-5.650126765664676%"><stop offset="0%" stop-opacity="1" style="stop-color:rgb(230,171,255)"/><stop offset="100%" stop-opacity="1" style="stop-color:rgb(109,199,255)"/></linearGradient><path d=" M 316 -52.189 L 316 -50.189 L 272 -50.189 L 272 -52.189 L 316 -52.189 Z " fill="url(#_lgradient_39)"/><linearGradient id="_lgradient_40" x1="50%" y1="-3.0182301098635733%" x2="49.99999999999998%" y2="105.65012676566434%"><stop offset="0%" stop-opacity="1" style="stop-color:rgb(109,199,255)"/><stop offset="100%" stop-opacity="1" style="stop-color:rgb(230,171,255)"/></linearGradient><path d=" M 272 -22.189 L 272 -24.189 L 316 -24.189 L 316 -22.189 L 272 -22.189 Z " fill="url(#_lgradient_40)"/></g></svg>