<?xml version="1.0" standalone="no"?><!-- Generator: Gravit.io --><svg xmlns="http://www.w3.org/2000/svg" xmlns:xlink="http://www.w3.org/1999/xlink" style="isolation:isolate" viewBox="268 -1 52 46" width="52" height="46"><g id="Group"><linearGradient id="_lgradient_41" x1="50%" y1="118.75%" x2="50.000000000000014%" y2="-43.85000000000048%"><stop offset="0%" stop-opacity="1" style="stop-color:rgb(230,171,255)"/><stop offset="100%" stop-opacity="1" style="stop-color:rgb(109,199,255)"/></linearGradient><rect x="272" y="25" width="44" height="2" transform="matrix(1,0,0,1,0,0)" fill="url(#_lgradient_41)"/><linearGradient id="_lgradient_42" x1="50.00000000001849%" y1="262.96643197527436%" x2="50.00000000001851%" y2="-17.166592648329583%"><stop offset="0%" stop-opacity="1" style="stop-color:rgb(26,109,255)"/><stop offset="100%" stop-opacity="1" style="stop-color:rgb(200,34,255)"/></linearGradient><path d=" M 317 21 L 271 21 C 269.343 21 268 22.343 268 24 L 268 28 C 268 29.657 269.343 31 271 31 L 317 31 C 318.657 31 320 29.657 320 28 L 320 24 C 320 22.343 318.657 21 317 21 Z  M 318 28 C 318 28.552 317.552 29 317 29 L 271 29 C 270.448 29 270 28.552 270 28 L 270 24 C 270 23.448 270.448 23 271 23 L 317 23 C 317.552 23 318 23.448 318 24 L 318 28 Z  M 317 7 L 302.988 7 C 302.685 7 302.39 6.849 302.198 6.595 L 297.905 0.939 C 296.981 -0.287 295.533 -1.005 293.998 -1 C 292.465 -1.005 291.018 -0.287 290.096 0.938 L 285.803 6.598 C 285.616 6.847 285.324 6.996 285.012 7 L 271 7 C 269.346 7 268 8.338 268 9.983 L 268 13.992 C 268 15.65 269.342 16.996 271 17 L 317 17 C 318.654 17 320 15.65 320 13.992 L 320 9.983 C 319.993 8.332 318.651 6.997 317 7 Z  M 318 13.992 C 318 14.547 317.551 15 317 15 L 271 15 C 270.449 15 270 14.547 270 13.992 L 270 9.983 C 269.999 9.719 270.105 9.466 270.293 9.281 C 270.481 9.096 270.736 8.995 271 9 L 285.012 9 C 285.937 9 286.828 8.554 287.396 7.806 L 291.689 2.147 C 292.235 1.422 293.091 0.997 293.998 1 C 294.914 1 295.757 1.419 296.312 2.149 L 300.605 7.805 C 301.17 8.552 302.051 8.994 302.988 9 L 317 9 C 317.561 9 318 9.432 318 9.983 L 318 13.992 Z  M 271 45 C 269.346 45 268 43.662 268 42.017 L 268 38.008 C 268 36.35 269.342 35.004 271 35 L 317 35 C 318.654 35 320 36.35 320 38.008 L 320 42.017 C 319.993 43.668 318.651 45.003 317 45 L 271 45 Z  M 271 37 C 270.449 37 270 37.453 270 38.008 L 270 42.017 C 270 42.568 270.439 43 271 43 L 317 43 C 317.561 43 318 42.568 318 42.017 L 318 38.008 C 318 37.453 317.551 37 317 37 L 271 37 Z " fill="url(#_lgradient_42)"/><linearGradient id="_lgradient_43" x1="50%" y1="103.01823010986352%" x2="50.000000000000014%" y2="-5.650126765664676%"><stop offset="0%" stop-opacity="1" style="stop-color:rgb(230,171,255)"/><stop offset="100%" stop-opacity="1" style="stop-color:rgb(109,199,255)"/></linearGradient><path d=" M 294 4.717 C 294.644 4.717 295.252 5.03 295.626 5.553 L 299.215 10.58 C 299.403 10.843 299.708 11 300.029 11 L 316 11 L 316 13 L 300.029 13 C 299.064 13 298.151 12.53 297.589 11.742 L 294 6.716 L 290.413 11.742 C 289.849 12.53 288.94 12.998 287.971 13 L 272 13 L 272 11 L 287.971 11 C 288.294 10.999 288.597 10.842 288.784 10.579 L 292.372 5.554 C 292.748 5.029 293.354 4.718 294 4.717 Z " fill="url(#_lgradient_43)"/><linearGradient id="_lgradient_44" x1="50%" y1="-3.0182301098635733%" x2="49.99999999999998%" y2="105.65012676566434%"><stop offset="0%" stop-opacity="1" style="stop-color:rgb(109,199,255)"/><stop offset="100%" stop-opacity="1" style="stop-color:rgb(230,171,255)"/></linearGradient><path d=" M 272 41 L 272 39 L 316 39 L 316 41 L 272 41 Z " fill="url(#_lgradient_44)"/></g></svg>