<?xml version="1.0" encoding="UTF-8" standalone="no"?>
<!-- Generator: Gravit.io -->
<svg xmlns="http://www.w3.org/2000/svg" xmlns:xlink="http://www.w3.org/1999/xlink" style="isolation:isolate" viewBox="553.202 -240 43.419 52" width="43.419" height="52"><g id="Group"><linearGradient id="_lgradient_6" x1="50.000785385545775%" y1="-2.43350311262025%" x2="50.000785385545754%" y2="105.83907586803822%"><stop offset="0%" stop-opacity="1" style="stop-color:rgb(109,199,255)"/><stop offset="100%" stop-opacity="1" style="stop-color:rgb(230,171,255)"/></linearGradient><path d=" M 561.566 -188 L 559.118 -190.448 L 583.208 -214.538 L 560.2 -237.552 L 562.648 -240 L 585.656 -216.992 C 587.008 -215.642 587.008 -213.44 585.656 -212.09 L 561.566 -188 Z " fill="url(#_lgradient_6)"/><linearGradient id="_lgradient_7" x1="50.00359394574778%" y1="-41.10997207586002%" x2="50.003593945747745%" y2="140.57663890598707%"><stop offset="0%" stop-opacity="1" style="stop-color:rgb(26,109,255)"/><stop offset="100%" stop-opacity="1" style="stop-color:rgb(200,34,255)"/></linearGradient><path d=" M 571.371 -188.035 L 556.664 -188.035 C 555.264 -188.032 554.001 -188.875 553.468 -190.169 C 552.929 -191.461 553.225 -192.952 554.218 -193.939 L 573.055 -212.779 C 573.729 -213.454 573.729 -214.547 573.055 -215.223 L 554.218 -234.062 C 553.225 -235.05 552.928 -236.54 553.468 -237.833 C 554.001 -239.127 555.264 -239.97 556.664 -239.967 L 571.371 -239.967 C 572.294 -239.967 573.163 -239.609 573.815 -238.956 L 595.101 -217.671 C 596.08 -216.691 596.62 -215.387 596.62 -214.001 C 596.62 -212.614 596.08 -211.311 595.101 -210.331 L 573.817 -189.047 C 573.163 -188.393 572.294 -188.035 571.371 -188.035 Z  M 571.369 -236.505 L 556.664 -236.505 L 575.503 -217.671 C 577.527 -215.643 577.527 -212.359 575.503 -210.331 L 556.665 -191.492 L 571.371 -191.497 L 592.651 -212.779 C 592.978 -213.104 593.157 -213.539 593.157 -214.001 C 593.157 -214.463 592.977 -214.896 592.651 -215.223 L 571.369 -236.505 Z " fill="url(#_lgradient_7)"/></g></svg>