<?xml version="1.0" encoding="UTF-8" standalone="no"?>
<!-- Generator: Gravit.io -->
<svg xmlns="http://www.w3.org/2000/svg" xmlns:xlink="http://www.w3.org/1999/xlink" style="isolation:isolate" viewBox="628.255 -27.5 35.798 53" width="35.798" height="53"><g id="Group"><linearGradient id="_lgradient_2" x1="50%" y1="-1.9230769230769231%" x2="49.999999999999986%" y2="102.42115384615384%"><stop offset="0%" stop-opacity="1" style="stop-color:rgb(26,109,255)"/><stop offset="100%" stop-opacity="1" style="stop-color:rgb(200,34,255)"/></linearGradient><path d=" M 662.92 1.35 L 639.858 24.413 C 638.408 25.862 636.049 25.862 634.6 24.413 L 629.342 19.155 C 627.893 17.706 627.893 15.347 629.342 13.897 L 644.239 -1 L 629.342 -15.897 C 627.893 -17.347 627.893 -19.706 629.342 -21.155 L 634.6 -26.413 C 636.049 -27.862 638.408 -27.862 639.858 -26.413 L 654.755 -11.516 L 662.991 -3.28 C 664.284 -2.254 664.549 -0.134 662.92 1.35 Z  M 631.095 15.65 C 630.611 16.134 630.611 16.918 631.095 17.402 L 636.353 22.66 C 636.837 23.144 637.621 23.144 638.105 22.66 L 661.766 -1 L 654.755 -8.01 L 638.105 -24.66 C 637.621 -25.144 636.837 -25.144 636.353 -24.66 L 631.095 -19.402 C 630.611 -18.919 630.611 -18.134 631.095 -17.65 L 647.745 -1 L 631.095 15.65 Z " fill="url(#_lgradient_2)"/><linearGradient id="_lgradient_3" x1="50%" y1="-2.2727272727272734%" x2="49.999999999999986%" y2="102.32727272727273%"><stop offset="0%" stop-opacity="1" style="stop-color:rgb(109,199,255)"/><stop offset="100%" stop-opacity="1" style="stop-color:rgb(230,171,255)"/></linearGradient><path d=" M 654.755 -4.505 L 638.105 -21.155 C 637.621 -21.639 636.837 -21.639 636.353 -21.155 L 634.6 -19.402 C 634.116 -18.919 634.116 -18.134 634.6 -17.65 L 651.25 -1 L 634.6 15.65 C 634.116 16.134 634.116 16.918 634.6 17.402 L 636.353 19.155 C 636.837 19.639 637.621 19.639 638.105 19.155 L 654.755 2.505 L 658.26 -1 L 654.755 -4.505 Z " fill="url(#_lgradient_3)"/></g></svg>