<?xml version="1.0" encoding="UTF-8" standalone="no"?>
<!-- Generator: Gravit.io -->
<svg xmlns="http://www.w3.org/2000/svg" xmlns:xlink="http://www.w3.org/1999/xlink" style="isolation:isolate" viewBox="739.49 -320.269 106.154 120" width="106.154" height="120"><g id="Group"><linearGradient id="_lgradient_2" x1="50%" y1="-1.2019230769230769%" x2="49.999999999999986%" y2="101.03653846153846%"><stop offset="0%" stop-opacity="1" style="stop-color:rgb(26,109,255)"/><stop offset="100%" stop-opacity="1" style="stop-color:rgb(200,34,255)"/></linearGradient><path d=" M 845.644 -267.192 L 845.644 -276.423 C 845.644 -278.968 843.574 -281.038 841.028 -281.038 L 841.028 -299.5 C 841.028 -303.317 837.922 -306.423 834.105 -306.423 L 831.798 -306.423 L 831.798 -308.731 C 831.798 -312.548 828.692 -315.654 824.875 -315.654 L 781.028 -315.654 C 781.028 -318.199 778.958 -320.269 776.413 -320.269 L 767.182 -320.269 C 764.637 -320.269 762.567 -318.199 762.567 -315.654 L 755.644 -315.654 C 751.827 -315.654 748.721 -312.548 748.721 -308.731 L 748.721 -299.5 L 746.413 -299.5 C 742.596 -299.5 739.49 -296.394 739.49 -292.577 C 739.49 -288.76 742.596 -285.654 746.413 -285.654 L 748.721 -285.654 L 748.721 -276.423 L 746.413 -276.423 C 742.596 -276.423 739.49 -273.317 739.49 -269.5 C 739.49 -265.683 742.596 -262.577 746.413 -262.577 L 748.721 -262.577 L 748.721 -253.346 L 746.413 -253.346 C 742.596 -253.346 739.49 -250.24 739.49 -246.423 C 739.49 -242.606 742.596 -239.5 746.413 -239.5 L 748.721 -239.5 L 748.721 -230.269 L 746.413 -230.269 C 742.596 -230.269 739.49 -227.163 739.49 -223.346 C 739.49 -219.529 742.596 -216.423 746.413 -216.423 L 748.721 -216.423 L 748.721 -207.192 C 748.721 -203.375 751.827 -200.269 755.644 -200.269 L 834.105 -200.269 C 837.922 -200.269 841.028 -203.375 841.028 -207.192 L 841.028 -234.885 C 843.574 -234.885 845.644 -236.955 845.644 -239.5 L 845.644 -248.731 C 845.644 -251.276 843.574 -253.346 841.028 -253.346 L 841.028 -262.577 C 843.574 -262.577 845.644 -264.647 845.644 -267.192 Z  M 836.413 -267.192 L 831.798 -267.192 L 831.798 -276.423 L 836.413 -276.423 L 836.413 -267.192 Z  M 834.105 -301.808 C 835.38 -301.808 836.413 -300.774 836.413 -299.5 L 836.413 -281.038 L 831.798 -281.038 L 831.798 -301.808 L 834.105 -301.808 Z  M 831.798 -248.731 L 836.413 -248.731 L 836.413 -239.5 L 831.798 -239.5 L 831.798 -248.731 Z  M 767.182 -315.654 L 776.413 -315.654 L 776.413 -299.5 L 767.182 -299.5 L 767.182 -315.654 Z  M 746.413 -290.269 C 745.139 -290.269 744.105 -291.302 744.105 -292.577 C 744.105 -293.851 745.139 -294.885 746.413 -294.885 L 748.721 -294.885 L 748.721 -290.269 L 746.413 -290.269 Z  M 746.413 -267.192 C 745.139 -267.192 744.105 -268.225 744.105 -269.5 C 744.105 -270.774 745.139 -271.808 746.413 -271.808 L 748.721 -271.808 L 748.721 -267.192 L 746.413 -267.192 Z  M 746.413 -244.115 C 745.139 -244.115 744.105 -245.149 744.105 -246.423 C 744.105 -247.698 745.139 -248.731 746.413 -248.731 L 748.721 -248.731 L 748.721 -244.115 L 746.413 -244.115 Z  M 746.413 -221.038 C 745.139 -221.038 744.105 -222.072 744.105 -223.346 C 744.105 -224.621 745.139 -225.654 746.413 -225.654 L 748.721 -225.654 L 748.721 -221.038 L 746.413 -221.038 Z  M 808.721 -204.885 L 755.644 -204.885 C 754.369 -204.885 753.336 -205.918 753.336 -207.192 L 753.336 -308.731 C 753.336 -310.005 754.369 -311.038 755.644 -311.038 L 762.567 -311.038 L 762.567 -299.5 C 762.567 -296.955 764.637 -294.885 767.182 -294.885 L 776.413 -294.885 C 778.958 -294.885 781.028 -296.955 781.028 -299.5 L 781.028 -311.038 L 824.875 -311.038 C 826.149 -311.038 827.182 -310.005 827.182 -308.731 L 827.182 -207.192 C 827.182 -205.918 826.149 -204.885 824.875 -204.885 L 808.721 -204.885 Z  M 836.413 -207.192 C 836.413 -205.918 835.38 -204.885 834.105 -204.885 L 831.373 -204.885 C 831.632 -205.609 831.798 -206.378 831.798 -207.192 L 831.798 -234.885 L 836.413 -234.885 L 836.413 -207.192 Z  M 836.413 -253.346 L 831.798 -253.346 L 831.798 -262.577 L 836.413 -262.577 L 836.413 -253.346 Z " fill="url(#_lgradient_2)"/><linearGradient id="_lgradient_3" x1="50%" y1="-113.54166666666666%" x2="49.999999999999915%" y2="329.4916666666667%"><stop offset="0%" stop-opacity="1" style="stop-color:rgb(26,109,255)"/><stop offset="100%" stop-opacity="1" style="stop-color:rgb(200,34,255)"/></linearGradient><path d=" M 813.336 -290.269 L 767.182 -290.269 C 764.637 -290.269 762.567 -288.199 762.567 -285.654 L 762.567 -267.192 C 762.567 -264.647 764.637 -262.577 767.182 -262.577 L 813.336 -262.577 C 815.882 -262.577 817.952 -264.647 817.952 -267.192 L 817.952 -285.654 C 817.952 -288.199 815.882 -290.269 813.336 -290.269 Z  M 813.336 -267.192 L 767.182 -267.192 L 767.182 -285.654 L 813.336 -285.654 L 813.336 -267.192 Z " fill="url(#_lgradient_3)"/><linearGradient id="_lgradient_4" x1="50%" y1="-1381.25%" x2="49.99999999999951%" y2="1276.95%"><stop offset="0%" stop-opacity="1" style="stop-color:rgb(26,109,255)"/><stop offset="100%" stop-opacity="1" style="stop-color:rgb(200,34,255)"/></linearGradient><rect x="776.413" y="-257.961" width="41.538" height="4.615" transform="matrix(1,0,0,1,0,0)" fill="url(#_lgradient_4)"/><linearGradient id="_lgradient_5" x1="50%" y1="-1581.25%" x2="49.99999999999951%" y2="1076.95%"><stop offset="0%" stop-opacity="1" style="stop-color:rgb(26,109,255)"/><stop offset="100%" stop-opacity="1" style="stop-color:rgb(200,34,255)"/></linearGradient><rect x="776.413" y="-248.731" width="41.538" height="4.615" transform="matrix(1,0,0,1,0,0)" fill="url(#_lgradient_5)"/><linearGradient id="_lgradient_6" x1="50%" y1="-1781.25%" x2="49.99999999999951%" y2="876.95%"><stop offset="0%" stop-opacity="1" style="stop-color:rgb(26,109,255)"/><stop offset="100%" stop-opacity="1" style="stop-color:rgb(200,34,255)"/></linearGradient><rect x="776.413" y="-239.5" width="32.308" height="4.615" transform="matrix(1,0,0,1,0,0)" fill="url(#_lgradient_6)"/><linearGradient id="_lgradient_7" x1="50%" y1="-1381.25%" x2="49.99999999999951%" y2="1276.95%"><stop offset="0%" stop-opacity="1" style="stop-color:rgb(26,109,255)"/><stop offset="100%" stop-opacity="1" style="stop-color:rgb(200,34,255)"/></linearGradient><rect x="762.567" y="-257.961" width="9.231" height="4.615" transform="matrix(1,0,0,1,0,0)" fill="url(#_lgradient_7)"/><linearGradient id="_lgradient_8" x1="50%" y1="-1581.25%" x2="49.99999999999951%" y2="1076.95%"><stop offset="0%" stop-opacity="1" style="stop-color:rgb(26,109,255)"/><stop offset="100%" stop-opacity="1" style="stop-color:rgb(200,34,255)"/></linearGradient><rect x="762.567" y="-248.731" width="9.231" height="4.615" transform="matrix(1,0,0,1,0,0)" fill="url(#_lgradient_8)"/><linearGradient id="_lgradient_9" x1="50%" y1="-1781.25%" x2="49.99999999999951%" y2="876.95%"><stop offset="0%" stop-opacity="1" style="stop-color:rgb(26,109,255)"/><stop offset="100%" stop-opacity="1" style="stop-color:rgb(200,34,255)"/></linearGradient><rect x="762.567" y="-239.5" width="9.231" height="4.615" transform="matrix(1,0,0,1,0,0)" fill="url(#_lgradient_9)"/><linearGradient id="_lgradient_10" x1="50%" y1="2.07499999999996%" x2="49.999999999999986%" y2="102.07499999999996%"><stop offset="0%" stop-opacity="1" style="stop-color:rgb(109,199,255)"/><stop offset="100%" stop-opacity="1" style="stop-color:rgb(230,171,255)"/></linearGradient><rect x="831.798" y="-276.423" width="9.231" height="9.231" transform="matrix(1,0,0,1,0,0)" fill="url(#_lgradient_10)"/><linearGradient id="_lgradient_11" x1="50%" y1="-4.17500000000004%" x2="49.99999999999998%" y2="106.25%"><stop offset="0%" stop-opacity="1" style="stop-color:rgb(109,199,255)"/><stop offset="100%" stop-opacity="1" style="stop-color:rgb(230,171,255)"/></linearGradient><rect x="831.798" y="-248.731" width="9.231" height="9.231" transform="matrix(1,0,0,1,0,0)" fill="url(#_lgradient_11)"/></g></svg>