<?xml version="1.0" encoding="UTF-8" standalone="no"?>
<!-- Generator: Gravit.io -->
<svg xmlns="http://www.w3.org/2000/svg" xmlns:xlink="http://www.w3.org/1999/xlink" style="isolation:isolate" viewBox="268 -226 135.652 120" width="135.652" height="120"><g id="Group"><linearGradient id="_lgradient_0" x1="50%" y1="0%" x2="49.999999999999986%" y2="100.61956521739131%"><stop offset="0%" stop-opacity="1" style="stop-color:rgb(26,109,255)"/><stop offset="100%" stop-opacity="1" style="stop-color:rgb(200,34,255)"/></linearGradient><path d=" M 395.826 -210.348 L 393.217 -210.348 L 393.217 -213.176 C 393.212 -217.375 389.808 -220.778 385.608 -220.783 L 351.478 -220.783 C 344.831 -220.783 339.022 -217.201 335.826 -211.877 C 332.63 -217.201 326.821 -220.783 320.174 -220.783 L 314.957 -220.783 C 314.957 -223.66 312.617 -226 309.739 -226 L 299.304 -226 C 296.427 -226 294.087 -223.66 294.087 -220.783 L 286.044 -220.783 C 281.845 -220.778 278.441 -217.375 278.435 -213.176 L 278.435 -210.348 L 275.826 -210.348 C 271.511 -210.348 268 -206.837 268 -202.522 L 268 -119.043 C 268 -114.729 271.511 -111.217 275.826 -111.217 L 322.783 -111.217 C 322.783 -108.34 325.123 -106 328 -106 L 343.652 -106 C 346.53 -106 348.87 -108.34 348.87 -111.217 L 395.826 -111.217 C 400.141 -111.217 403.652 -114.729 403.652 -119.043 L 403.652 -202.522 C 403.652 -206.837 400.141 -210.348 395.826 -210.348 Z  M 283.652 -132.087 L 320.174 -132.087 C 325.115 -132.087 329.37 -129.293 331.582 -125.234 C 329.689 -126.292 327.56 -126.855 325.391 -126.87 L 283.652 -126.87 L 283.652 -132.087 Z  M 351.478 -215.565 L 385.608 -215.565 C 386.928 -215.565 388 -214.493 388 -213.176 L 388 -137.304 L 351.478 -137.304 C 346.568 -137.308 341.864 -135.327 338.435 -131.813 L 338.435 -202.522 C 338.435 -209.714 344.286 -215.565 351.478 -215.565 Z  M 388 -132.087 L 388 -126.87 L 346.261 -126.87 C 344.01 -126.87 341.92 -126.243 340.07 -125.234 C 342.283 -129.293 346.537 -132.087 351.478 -132.087 L 388 -132.087 Z  M 299.304 -220.783 L 309.739 -220.783 L 309.739 -199.913 L 299.304 -199.913 L 299.304 -220.783 Z  M 283.652 -213.176 C 283.652 -214.493 284.724 -215.565 286.044 -215.565 L 294.087 -215.565 L 294.087 -199.913 C 294.087 -197.036 296.427 -194.696 299.304 -194.696 L 309.739 -194.696 C 312.617 -194.696 314.957 -197.036 314.957 -199.913 L 314.957 -215.565 L 320.174 -215.565 C 327.366 -215.565 333.217 -209.714 333.217 -202.522 L 333.217 -131.813 C 329.788 -135.327 325.084 -137.308 320.174 -137.304 L 283.652 -137.304 L 283.652 -213.176 Z  M 398.435 -119.043 C 398.435 -117.603 397.267 -116.435 395.826 -116.435 L 343.652 -116.435 L 343.652 -111.217 L 328 -111.217 L 328 -116.435 L 275.826 -116.435 C 274.385 -116.435 273.217 -117.603 273.217 -119.043 L 273.217 -202.522 C 273.217 -203.962 274.385 -205.13 275.826 -205.13 L 278.435 -205.13 L 278.435 -126.87 C 278.435 -123.992 280.775 -121.652 283.652 -121.652 L 325.391 -121.652 C 329.706 -121.652 333.217 -118.141 333.217 -113.826 L 338.435 -113.826 C 338.435 -118.141 341.946 -121.652 346.261 -121.652 L 388 -121.652 C 390.877 -121.652 393.217 -123.992 393.217 -126.87 L 393.217 -205.13 L 395.826 -205.13 C 397.267 -205.13 398.435 -203.962 398.435 -202.522 L 398.435 -119.043 Z " fill="url(#_lgradient_0)"/><linearGradient id="_lgradient_1" x1="50%" y1="0%" x2="49.999999999999986%" y2="102.1%"><stop offset="0%" stop-opacity="1" style="stop-color:rgb(109,199,255)"/><stop offset="100%" stop-opacity="1" style="stop-color:rgb(230,171,255)"/></linearGradient><rect x="299.304" y="-220.783" width="10.435" height="20.87" transform="matrix(1,0,0,1,0,0)" fill="url(#_lgradient_1)"/></g></svg>