<?xml version="1.0" standalone="no"?><!-- Generator: Gravit.io --><svg xmlns="http://www.w3.org/2000/svg" xmlns:xlink="http://www.w3.org/1999/xlink" style="isolation:isolate" viewBox="731.829 14.204 360.226 360" width="360.226" height="360"><g id="Group"><linearGradient id="_lgradient_45" x1="50.00037444919947%" y1="0.1626423120230175%" x2="50.00037444919945%" y2="100.16214187413988%"><stop offset="0%" stop-opacity="1" style="stop-color:rgb(26,109,255)"/><stop offset="100%" stop-opacity="1" style="stop-color:rgb(200,34,255)"/></linearGradient><path d=" M 1084.808 61.212 L 1044.82 21.224 C 1035.452 11.863 1019.122 11.863 1009.761 21.224 L 984.049 46.937 L 979.963 42.851 C 970.595 33.49 954.266 33.49 944.905 42.851 L 940.48 47.275 C 930.939 40.854 917.182 41.748 908.88 50.05 L 904.91 54.013 C 896.47 62.501 895.294 75.805 902.114 85.642 L 758.513 229.242 C 750.84 236.947 745.843 246.912 744.259 257.671 L 732.218 340.752 C 732.182 341.003 732.16 341.255 732.153 341.509 C 731.946 342.788 731.838 344.082 731.829 345.378 C 731.829 361.276 744.757 374.204 760.654 374.204 C 761.764 374.204 762.844 374.088 764.034 373.93 C 764.335 373.925 764.636 373.898 764.934 373.851 L 848.354 361.773 C 859.118 360.193 869.088 355.193 876.791 347.512 L 1020.383 203.926 C 1024.519 206.821 1029.445 208.373 1034.493 208.372 C 1041.116 208.372 1047.342 205.792 1052.019 201.115 L 1055.99 197.152 C 1064.432 188.665 1065.608 175.36 1058.786 165.524 L 1063.196 161.12 C 1072.854 151.43 1072.854 135.753 1063.196 126.062 L 1059.096 121.983 L 1084.808 96.278 C 1094.47 86.586 1094.47 70.904 1084.808 61.212 Z  M 969.766 53.04 L 1052.992 136.266 C 1057.043 140.32 1057.043 146.891 1052.992 150.945 L 1048.906 155.031 L 951.001 57.126 L 955.094 53.033 C 959.007 49.113 965.846 49.113 969.766 53.04 Z  M 763.493 359.503 C 763.184 359.511 762.876 359.538 762.571 359.582 C 761.936 359.669 761.31 359.791 760.654 359.791 C 752.705 359.791 746.241 353.327 746.241 345.378 C 746.241 344.571 746.371 343.786 746.501 343.015 C 746.557 342.689 746.588 342.359 746.594 342.028 L 748.475 329.042 C 761.07 334.842 771.18 344.949 776.983 357.543 L 763.493 359.503 Z  M 846.293 347.519 L 791.662 355.424 C 784.285 336.624 769.408 321.748 750.608 314.37 L 758.528 259.739 C 758.686 258.658 759.004 257.606 759.263 256.546 C 803.048 268.78 837.263 302.997 849.493 346.784 C 848.419 347.043 847.374 347.36 846.293 347.519 Z  M 866.601 337.329 C 865.399 338.512 864.113 339.605 862.753 340.601 C 848.823 293.81 812.222 257.209 765.432 243.28 C 766.44 241.932 767.507 240.628 768.696 239.431 L 911.986 96.141 L 1009.891 194.046 L 866.601 337.329 Z  M 1045.793 186.969 L 1041.822 190.933 C 1037.909 194.86 1031.07 194.86 1027.15 190.933 L 915.107 78.882 C 911.058 74.83 911.055 68.266 915.099 64.21 L 919.063 60.254 L 919.063 60.247 C 921.023 58.286 923.632 57.206 926.399 57.206 C 929.166 57.206 931.775 58.279 933.735 60.247 L 1045.786 172.297 C 1049.836 176.34 1049.836 182.927 1045.793 186.969 Z  M 801.78 163.109 L 791.59 152.92 L 870.86 73.65 L 881.05 83.84 L 801.78 163.109 Z  M 937.432 190.155 L 915.878 168.608 C 913.736 166.443 910.816 165.228 907.77 165.235 L 907.763 165.235 C 904.701 165.235 901.818 166.431 899.656 168.601 L 857.723 210.534 C 855.561 212.68 854.349 215.602 854.357 218.648 C 854.357 221.711 855.554 224.586 857.715 226.763 L 879.27 248.31 C 881.431 250.486 884.314 251.682 887.377 251.682 L 887.384 251.682 C 890.447 251.682 893.329 250.486 895.491 248.317 L 937.424 206.383 C 939.594 204.214 940.79 201.339 940.79 198.269 C 940.8 195.224 939.591 192.302 937.432 190.155 L 937.432 190.155 Z  M 887.384 236.044 L 869.981 218.648 L 883.773 204.856 L 901.17 222.252 L 887.384 236.044 Z  M 911.366 212.062 L 893.97 194.666 L 907.763 180.873 L 925.167 198.269 L 911.366 212.062 Z " fill="url(#_lgradient_45)"/><linearGradient id="_lgradient_46" x1="49.99729976790932%" y1="0.16217268147122876%" x2="49.997299767909304%" y2="100.15568577421239%"><stop offset="0%" stop-opacity="1" style="stop-color:rgb(109,199,255)"/><stop offset="100%" stop-opacity="1" style="stop-color:rgb(230,171,255)"/></linearGradient><path d=" M 1074.618 86.088 L 1048.906 111.793 L 994.239 57.126 L 1019.951 31.421 C 1023.864 27.494 1030.703 27.494 1034.623 31.421 L 1074.611 71.409 C 1078.661 75.452 1078.661 82.038 1074.618 86.088 Z " fill="url(#_lgradient_46)"/></g></svg>