<?xml version="1.0" encoding="UTF-8" standalone="no"?>
<!-- Generator: Gravit.io -->
<svg xmlns="http://www.w3.org/2000/svg" xmlns:xlink="http://www.w3.org/1999/xlink" style="isolation:isolate" viewBox="-43.637 63.71 120 120" width="120" height="120"><g id="Group"><linearGradient id="_lgradient_0" x1="50%" y1="0.6403846153846162%" x2="49.999999999999986%" y2="103.22307692307693%"><stop offset="0%" stop-opacity="1" style="stop-color:rgb(26,109,255)"/><stop offset="100%" stop-opacity="1" style="stop-color:rgb(200,34,255)"/></linearGradient><path d=" M 16.363 183.71 C -16.722 183.71 -43.637 156.795 -43.637 123.71 C -43.637 90.625 -16.722 63.71 16.363 63.71 C 49.448 63.71 76.363 90.625 76.363 123.71 C 76.363 156.795 49.448 183.71 16.363 183.71 Z  M 16.363 68.325 C -14.175 68.325 -39.022 93.172 -39.022 123.71 C -39.022 154.248 -14.175 179.095 16.363 179.095 C 46.901 179.095 71.748 154.248 71.748 123.71 C 71.748 93.172 46.901 68.325 16.363 68.325 Z " fill="url(#_lgradient_0)"/><linearGradient id="_lgradient_1" x1="50%" y1="-14.167500000000002%" x2="49.99999999999998%" y2="119.19000000000001%"><stop offset="0%" stop-opacity="1" style="stop-color:rgb(26,109,255)"/><stop offset="100%" stop-opacity="1" style="stop-color:rgb(200,34,255)"/></linearGradient><path d=" M 16.363 169.864 C -9.086 169.864 -29.791 149.159 -29.791 123.71 C -29.791 98.261 -9.086 77.556 16.363 77.556 C 41.812 77.556 62.517 98.261 62.517 123.71 C 62.517 149.159 41.812 169.864 16.363 169.864 Z  M 16.363 82.171 C -6.541 82.171 -25.175 100.806 -25.175 123.71 C -25.175 146.614 -6.541 165.248 16.363 165.248 C 39.267 165.248 57.902 146.614 57.902 123.71 C 57.902 100.806 39.267 82.171 16.363 82.171 Z " fill="url(#_lgradient_1)"/><linearGradient id="_lgradient_2" x1="49.99894128433093%" y1="-7.295848423698703%" x2="49.99894128433091%" y2="104.1774631782215%"><stop offset="0%" stop-opacity="1" style="stop-color:rgb(109,199,255)"/><stop offset="100%" stop-opacity="1" style="stop-color:rgb(230,171,255)"/></linearGradient><path d=" M -2.098 139.668 L -2.098 107.752 C -2.098 105.892 -0.142 104.685 1.522 105.516 L 33.438 121.474 C 34.285 121.897 34.821 122.763 34.821 123.71 C 34.821 124.657 34.285 125.523 33.438 125.946 L 1.52 141.904 C 0.745 142.292 -0.176 142.251 -0.913 141.795 C -1.65 141.34 -2.099 140.534 -2.098 139.668 Z " fill="url(#_lgradient_2)"/></g></svg>