<?xml version="1.0" standalone="no"?><!-- Generator: Gravit.io --><svg xmlns="http://www.w3.org/2000/svg" xmlns:xlink="http://www.w3.org/1999/xlink" style="isolation:isolate" viewBox="666.897 -95.368 52 52" width="52" height="52"><g id="Group"><linearGradient id="_lgradient_66" x1="50%" y1="-1.9230769230769231%" x2="49.999999999999986%" y2="102.42115384615384%"><stop offset="0%" stop-opacity="1" style="stop-color:rgb(26,109,255)"/><stop offset="100%" stop-opacity="1" style="stop-color:rgb(200,34,255)"/></linearGradient><path d=" M 695.897 -43.368 L 689.897 -43.368 C 688.243 -43.368 686.897 -44.714 686.897 -46.368 L 686.897 -63.368 L 669.897 -63.368 C 668.243 -63.368 666.897 -64.714 666.897 -66.368 L 666.897 -72.368 C 666.897 -74.022 668.243 -75.368 669.897 -75.368 L 686.897 -75.368 L 686.897 -92.368 C 686.897 -94.022 688.243 -95.368 689.897 -95.368 L 695.897 -95.368 C 697.551 -95.368 698.897 -94.022 698.897 -92.368 L 698.897 -75.368 L 715.897 -75.368 C 717.551 -75.368 718.897 -74.022 718.897 -72.368 L 718.897 -66.368 C 718.897 -64.714 717.551 -63.368 715.897 -63.368 L 698.897 -63.368 L 698.897 -46.368 C 698.897 -44.714 697.551 -43.368 695.897 -43.368 Z  M 669.897 -73.368 C 669.345 -73.368 668.897 -72.92 668.897 -72.368 L 668.897 -66.368 C 668.897 -65.815 669.345 -65.368 669.897 -65.368 L 688.897 -65.368 L 688.897 -46.368 C 688.897 -45.815 689.345 -45.368 689.897 -45.368 L 695.897 -45.368 C 696.45 -45.368 696.897 -45.815 696.897 -46.368 L 696.897 -65.368 L 715.897 -65.368 C 716.45 -65.368 716.897 -65.815 716.897 -66.368 L 716.897 -72.368 C 716.897 -72.92 716.45 -73.368 715.897 -73.368 L 696.897 -73.368 L 696.897 -92.368 C 696.897 -92.92 696.45 -93.368 695.897 -93.368 L 689.897 -93.368 C 689.345 -93.368 688.897 -92.92 688.897 -92.368 L 688.897 -73.368 L 669.897 -73.368 Z " fill="url(#_lgradient_66)"/><linearGradient id="_lgradient_67" x1="50%" y1="-2.2727272727272734%" x2="49.999999999999986%" y2="102.32727272727273%"><stop offset="0%" stop-opacity="1" style="stop-color:rgb(109,199,255)"/><stop offset="100%" stop-opacity="1" style="stop-color:rgb(230,171,255)"/></linearGradient><path d=" M 713.897 -71.368 L 694.897 -71.368 L 694.897 -90.368 C 694.897 -90.92 694.45 -91.368 693.897 -91.368 L 691.897 -91.368 C 691.345 -91.368 690.897 -90.92 690.897 -90.368 L 690.897 -71.368 L 671.897 -71.368 C 671.345 -71.368 670.897 -70.92 670.897 -70.368 L 670.897 -68.368 C 670.897 -67.815 671.345 -67.368 671.897 -67.368 L 690.897 -67.368 L 690.897 -48.368 C 690.897 -47.815 691.345 -47.368 691.897 -47.368 L 693.897 -47.368 C 694.45 -47.368 694.897 -47.815 694.897 -48.368 L 694.897 -67.368 L 713.897 -67.368 C 714.45 -67.368 714.897 -67.815 714.897 -68.368 L 714.897 -70.368 C 714.897 -70.92 714.45 -71.368 713.897 -71.368 Z " fill="url(#_lgradient_67)"/></g></svg>