<?xml version="1.0" encoding="UTF-8" standalone="no"?>
<!-- Generator: Gravit.io -->
<svg xmlns="http://www.w3.org/2000/svg" xmlns:xlink="http://www.w3.org/1999/xlink" style="isolation:isolate" viewBox="580.621 -27.5 35.798 53" width="35.798" height="53"><g id="Group"><linearGradient id="_lgradient_0" x1="50%" y1="-1.9230769230769231%" x2="49.999999999999986%" y2="102.42115384615384%"><stop offset="0%" stop-opacity="1" style="stop-color:rgb(26,109,255)"/><stop offset="100%" stop-opacity="1" style="stop-color:rgb(200,34,255)"/></linearGradient><path d=" M 581.753 1.35 L 604.815 24.413 C 606.265 25.862 608.624 25.862 610.073 24.413 L 615.331 19.155 C 616.78 17.706 616.78 15.347 615.331 13.897 L 600.434 -1 L 615.331 -15.897 C 616.78 -17.347 616.78 -19.706 615.331 -21.155 L 610.073 -26.413 C 608.624 -27.862 606.265 -27.862 604.815 -26.413 L 589.918 -11.516 L 581.682 -3.28 C 580.389 -2.254 580.124 -0.134 581.753 1.35 Z  M 613.578 15.65 C 614.062 16.134 614.062 16.918 613.578 17.402 L 608.321 22.66 C 607.837 23.144 607.052 23.144 606.568 22.66 L 582.908 -1 L 589.918 -8.01 L 606.568 -24.66 C 607.052 -25.144 607.837 -25.144 608.321 -24.66 L 613.578 -19.402 C 614.062 -18.919 614.062 -18.134 613.578 -17.65 L 596.929 -1 L 613.578 15.65 Z " fill="url(#_lgradient_0)"/><linearGradient id="_lgradient_1" x1="50%" y1="-2.2727272727272734%" x2="49.999999999999986%" y2="102.32727272727273%"><stop offset="0%" stop-opacity="1" style="stop-color:rgb(109,199,255)"/><stop offset="100%" stop-opacity="1" style="stop-color:rgb(230,171,255)"/></linearGradient><path d=" M 589.918 -4.505 L 606.568 -21.155 C 607.052 -21.639 607.837 -21.639 608.321 -21.155 L 610.073 -19.402 C 610.557 -18.919 610.557 -18.134 610.073 -17.65 L 593.423 -1 L 610.073 15.65 C 610.557 16.134 610.557 16.918 610.073 17.402 L 608.321 19.155 C 607.837 19.639 607.052 19.639 606.568 19.155 L 589.918 2.505 L 586.413 -1 L 589.918 -4.505 Z " fill="url(#_lgradient_1)"/></g></svg>