<?xml version="1.0" encoding="UTF-8" standalone="no"?>
<!-- Generator: Gravit.io -->
<svg xmlns="http://www.w3.org/2000/svg" xmlns:xlink="http://www.w3.org/1999/xlink" style="isolation:isolate" viewBox="508.487 -238.617 43.668 52" width="43.668" height="52"><g id="Group"><linearGradient id="_lgradient_8" x1="50.000785385545775%" y1="-2.43350311262025%" x2="50.000785385545754%" y2="105.83907586803822%"><stop offset="0%" stop-opacity="1" style="stop-color:rgb(109,199,255)"/><stop offset="100%" stop-opacity="1" style="stop-color:rgb(230,171,255)"/></linearGradient><path d=" M 542.823 -187.146 L 545.246 -189.569 L 521.401 -213.414 L 544.175 -236.194 L 541.752 -238.617 L 518.978 -215.843 C 517.64 -214.507 517.64 -212.327 518.978 -210.991 L 542.823 -187.146 Z " fill="url(#_lgradient_8)"/><linearGradient id="_lgradient_9" x1="50.00359394574778%" y1="-41.10997207586002%" x2="50.003593945747745%" y2="140.57663890598707%"><stop offset="0%" stop-opacity="1" style="stop-color:rgb(26,109,255)"/><stop offset="100%" stop-opacity="1" style="stop-color:rgb(200,34,255)"/></linearGradient><path d=" M 532.652 -187.082 L 547.202 -186.619 C 548.587 -186.572 549.863 -187.367 550.431 -188.63 C 551.005 -189.892 550.759 -191.375 549.808 -192.384 L 531.765 -211.615 C 531.12 -212.305 531.154 -213.386 531.842 -214.033 L 551.071 -232.078 C 552.085 -233.024 552.425 -234.489 551.932 -235.785 C 551.445 -237.082 550.222 -237.956 548.837 -237.997 L 534.287 -238.46 C 533.374 -238.489 532.503 -238.162 531.837 -237.537 L 510.109 -217.149 C 509.109 -216.21 508.533 -214.938 508.49 -213.566 C 508.446 -212.194 508.939 -210.888 509.878 -209.888 L 530.264 -188.161 C 530.891 -187.493 531.739 -187.111 532.652 -187.082 Z  M 534.18 -235.035 L 548.728 -234.572 L 529.497 -216.532 C 527.431 -214.589 527.327 -211.341 529.266 -209.27 L 547.309 -190.039 L 532.761 -190.507 L 512.378 -212.232 C 512.065 -212.564 511.902 -213 511.917 -213.457 C 511.931 -213.914 512.123 -214.337 512.455 -214.65 L 534.18 -235.035 Z " fill="url(#_lgradient_9)"/></g></svg>