<?xml version="1.0" encoding="UTF-8" standalone="no"?>
<!-- Generator: Gravit.io -->
<svg xmlns="http://www.w3.org/2000/svg" xmlns:xlink="http://www.w3.org/1999/xlink" style="isolation:isolate" viewBox="-323 -144.064 162 120" width="162" height="120"><g id="Group"><linearGradient id="_lgradient_39" x1="50%" y1="-66.25000000000001%" x2="49.99999999999996%" y2="170.03000000000003%"><stop offset="0%" stop-opacity="1" style="stop-color:rgb(109,199,255)"/><stop offset="100%" stop-opacity="1" style="stop-color:rgb(230,171,255)"/></linearGradient><path d=" M -308 -72.064 C -308 -70.407 -309.343 -69.064 -311 -69.064 L -317 -69.064 C -318.657 -69.064 -320 -70.407 -320 -72.064 L -320 -96.064 C -320 -97.721 -318.657 -99.064 -317 -99.064 L -311 -99.064 C -309.343 -99.064 -308 -97.721 -308 -96.064 L -308 -72.064 Z " fill="url(#_lgradient_39)"/><linearGradient id="_lgradient_40" x1="50%" y1="-139.58333333333331%" x2="49.999999999999936%" y2="221.05000000000007%"><stop offset="0%" stop-opacity="1" style="stop-color:rgb(26,109,255)"/><stop offset="100%" stop-opacity="1" style="stop-color:rgb(200,34,255)"/></linearGradient><path d=" M -311 -66.064 L -317 -66.064 C -320.309 -66.064 -323 -68.755 -323 -72.064 L -323 -96.064 C -323 -99.373 -320.309 -102.064 -317 -102.064 L -311 -102.064 C -307.691 -102.064 -305 -99.373 -305 -96.064 L -305 -72.064 C -305 -68.755 -307.691 -66.064 -311 -66.064 Z  M -317 -96.064 L -317 -72.064 L -311 -72.064 L -311 -96.064 L -317 -96.064 Z " fill="url(#_lgradient_40)"/><linearGradient id="_lgradient_41" x1="50%" y1="-44.791666666666664%" x2="49.999999999999964%" y2="135.52500000000003%"><stop offset="0%" stop-opacity="1" style="stop-color:rgb(26,109,255)"/><stop offset="100%" stop-opacity="1" style="stop-color:rgb(200,34,255)"/></linearGradient><path d=" M -287 -48.064 L -293 -48.064 C -296.309 -48.064 -299 -50.755 -299 -54.064 L -299 -114.064 C -299 -117.373 -296.309 -120.064 -293 -120.064 L -287 -120.064 C -283.691 -120.064 -281 -117.373 -281 -114.064 L -281 -54.064 C -281 -50.755 -283.691 -48.064 -287 -48.064 Z  M -293 -114.064 L -293 -54.064 L -287 -54.064 L -287 -114.064 L -293 -114.064 Z " fill="url(#_lgradient_41)"/><linearGradient id="_lgradient_42" x1="50%" y1="-6.8750000000000036%" x2="49.99999999999998%" y2="101.31500000000003%"><stop offset="0%" stop-opacity="1" style="stop-color:rgb(26,109,255)"/><stop offset="100%" stop-opacity="1" style="stop-color:rgb(200,34,255)"/></linearGradient><path d=" M -263 -24.064 L -269 -24.064 C -272.309 -24.064 -275 -26.755 -275 -30.064 L -275 -138.064 C -275 -141.373 -272.309 -144.064 -269 -144.064 L -263 -144.064 C -259.691 -144.064 -257 -141.373 -257 -138.064 L -257 -30.064 C -257 -26.755 -259.691 -24.064 -263 -24.064 Z  M -269 -138.064 L -269 -30.064 L -263 -30.064 L -263 -138.064 L -269 -138.064 Z " fill="url(#_lgradient_42)"/><linearGradient id="_lgradient_43" x1="50%" y1="-2.840909090909094%" x2="49.99999999999998%" y2="104.5590909090909%"><stop offset="0%" stop-opacity="1" style="stop-color:rgb(109,199,255)"/><stop offset="100%" stop-opacity="1" style="stop-color:rgb(230,171,255)"/></linearGradient><path d=" M -236 -54.064 C -236 -52.407 -237.343 -51.064 -239 -51.064 L -245 -51.064 C -246.657 -51.064 -248 -52.407 -248 -54.064 L -248 -114.064 C -248 -115.721 -246.657 -117.064 -245 -117.064 L -239 -117.064 C -237.343 -117.064 -236 -115.721 -236 -114.064 L -236 -54.064 Z " fill="url(#_lgradient_43)"/><linearGradient id="_lgradient_44" x1="50%" y1="-44.791666666666664%" x2="49.999999999999964%" y2="135.52500000000003%"><stop offset="0%" stop-opacity="1" style="stop-color:rgb(26,109,255)"/><stop offset="100%" stop-opacity="1" style="stop-color:rgb(200,34,255)"/></linearGradient><path d=" M -239 -48.064 L -245 -48.064 C -248.309 -48.064 -251 -50.755 -251 -54.064 L -251 -114.064 C -251 -117.373 -248.309 -120.064 -245 -120.064 L -239 -120.064 C -235.691 -120.064 -233 -117.373 -233 -114.064 L -233 -54.064 C -233 -50.755 -235.691 -48.064 -239 -48.064 Z  M -245 -114.064 L -245 -54.064 L -239 -54.064 L -239 -114.064 L -245 -114.064 Z " fill="url(#_lgradient_44)"/><linearGradient id="_lgradient_45" x1="50%" y1="-6.8750000000000036%" x2="49.99999999999998%" y2="101.31500000000003%"><stop offset="0%" stop-opacity="1" style="stop-color:rgb(26,109,255)"/><stop offset="100%" stop-opacity="1" style="stop-color:rgb(200,34,255)"/></linearGradient><path d=" M -215 -24.064 L -221 -24.064 C -224.309 -24.064 -227 -26.755 -227 -30.064 L -227 -138.064 C -227 -141.373 -224.309 -144.064 -221 -144.064 L -215 -144.064 C -211.691 -144.064 -209 -141.373 -209 -138.064 L -209 -30.064 C -209 -26.755 -211.691 -24.064 -215 -24.064 Z  M -221 -138.064 L -221 -30.064 L -215 -30.064 L -215 -138.064 L -221 -138.064 Z " fill="url(#_lgradient_45)"/><linearGradient id="_lgradient_46" x1="50%" y1="-44.791666666666664%" x2="49.999999999999964%" y2="135.52500000000003%"><stop offset="0%" stop-opacity="1" style="stop-color:rgb(26,109,255)"/><stop offset="100%" stop-opacity="1" style="stop-color:rgb(200,34,255)"/></linearGradient><path d=" M -191 -48.064 L -197 -48.064 C -200.309 -48.064 -203 -50.755 -203 -54.064 L -203 -114.064 C -203 -117.373 -200.309 -120.064 -197 -120.064 L -191 -120.064 C -187.691 -120.064 -185 -117.373 -185 -114.064 L -185 -54.064 C -185 -50.755 -187.691 -48.064 -191 -48.064 Z  M -197 -114.064 L -197 -54.064 L -191 -54.064 L -191 -114.064 L -197 -114.064 Z " fill="url(#_lgradient_46)"/><linearGradient id="_lgradient_47" x1="50%" y1="-66.25000000000001%" x2="49.99999999999996%" y2="170.03000000000003%"><stop offset="0%" stop-opacity="1" style="stop-color:rgb(109,199,255)"/><stop offset="100%" stop-opacity="1" style="stop-color:rgb(230,171,255)"/></linearGradient><path d=" M -164 -72.064 C -164 -70.407 -165.343 -69.064 -167 -69.064 L -173 -69.064 C -174.657 -69.064 -176 -70.407 -176 -72.064 L -176 -96.064 C -176 -97.721 -174.657 -99.064 -173 -99.064 L -167 -99.064 C -165.343 -99.064 -164 -97.721 -164 -96.064 L -164 -72.064 Z " fill="url(#_lgradient_47)"/><linearGradient id="_lgradient_48" x1="50%" y1="-139.58333333333331%" x2="49.999999999999936%" y2="221.05000000000007%"><stop offset="0%" stop-opacity="1" style="stop-color:rgb(26,109,255)"/><stop offset="100%" stop-opacity="1" style="stop-color:rgb(200,34,255)"/></linearGradient><path d=" M -167 -66.064 L -173 -66.064 C -176.309 -66.064 -179 -68.755 -179 -72.064 L -179 -96.064 C -179 -99.373 -176.309 -102.064 -173 -102.064 L -167 -102.064 C -163.691 -102.064 -161 -99.373 -161 -96.064 L -161 -72.064 C -161 -68.755 -163.691 -66.064 -167 -66.064 Z  M -173 -96.064 L -173 -72.064 L -167 -72.064 L -167 -96.064 L -173 -96.064 Z " fill="url(#_lgradient_48)"/></g></svg>