<?xml version="1.0" encoding="UTF-8" standalone="no"?>
<!-- Generator: Gravit.io -->
<svg xmlns="http://www.w3.org/2000/svg" xmlns:xlink="http://www.w3.org/1999/xlink" style="isolation:isolate" viewBox="-85.08 -383.451 120 120" width="120" height="120"><g id="Group"><linearGradient id="_lgradient_26" x1="50%" y1="-16.674999999999997%" x2="49.99999999999997%" y2="122.40000000000002%"><stop offset="0%" stop-opacity="1" style="stop-color:rgb(109,199,255)"/><stop offset="100%" stop-opacity="1" style="stop-color:rgb(230,171,255)"/></linearGradient><path d=" M -65.08 -363.451 C -67.837 -363.451 -70.08 -365.694 -70.08 -368.451 C -70.08 -371.209 -67.837 -373.451 -65.08 -373.451 C -62.322 -373.451 -60.08 -371.209 -60.08 -368.451 C -60.08 -365.694 -62.322 -363.451 -65.08 -363.451 Z  M -65.08 -368.454 L -65.08 -368.451 L -65.08 -368.454 Z " fill="url(#_lgradient_26)"/><linearGradient id="_lgradient_27" x1="50%" y1="-16.674999999999997%" x2="49.99999999999997%" y2="122.40000000000002%"><stop offset="0%" stop-opacity="1" style="stop-color:rgb(109,199,255)"/><stop offset="100%" stop-opacity="1" style="stop-color:rgb(230,171,255)"/></linearGradient><path d=" M -50.08 -363.451 C -52.837 -363.451 -55.08 -365.694 -55.08 -368.451 C -55.08 -371.209 -52.837 -373.451 -50.08 -373.451 C -47.322 -373.451 -45.08 -371.209 -45.08 -368.451 C -45.08 -365.694 -47.322 -363.451 -50.08 -363.451 Z  M -50.08 -368.454 L -50.08 -368.451 L -50.08 -368.454 Z " fill="url(#_lgradient_27)"/><linearGradient id="_lgradient_28" x1="50%" y1="-16.674999999999997%" x2="49.99999999999997%" y2="122.40000000000002%"><stop offset="0%" stop-opacity="1" style="stop-color:rgb(109,199,255)"/><stop offset="100%" stop-opacity="1" style="stop-color:rgb(230,171,255)"/></linearGradient><path d=" M -35.08 -363.451 C -37.837 -363.451 -40.08 -365.694 -40.08 -368.451 C -40.08 -371.209 -37.837 -373.451 -35.08 -373.451 C -32.322 -373.451 -30.08 -371.209 -30.08 -368.451 C -30.08 -365.694 -32.322 -363.451 -35.08 -363.451 Z  M -35.08 -368.454 L -35.08 -368.451 L -35.08 -368.454 Z " fill="url(#_lgradient_28)"/><linearGradient id="_lgradient_29" x1="50%" y1="0%" x2="49.999999999999986%" y2="103.84791666666666%"><stop offset="0%" stop-opacity="1" style="stop-color:rgb(26,109,255)"/><stop offset="100%" stop-opacity="1" style="stop-color:rgb(200,34,255)"/></linearGradient><path d=" M 22.42 -383.451 L -72.58 -383.451 C -79.472 -383.451 -85.08 -377.844 -85.08 -370.951 L -85.08 -275.951 C -85.08 -269.059 -79.472 -263.451 -72.58 -263.451 L 22.42 -263.451 C 29.313 -263.451 34.92 -269.059 34.92 -275.951 L 34.92 -370.951 C 34.92 -377.844 29.313 -383.451 22.42 -383.451 Z  M -72.58 -378.451 L 22.42 -378.451 C 26.555 -378.451 29.92 -375.086 29.92 -370.951 L 29.92 -358.451 L -80.08 -358.451 L -80.08 -370.951 C -80.08 -375.086 -76.715 -378.451 -72.58 -378.451 Z  M 22.42 -268.451 L -72.58 -268.451 C -76.715 -268.451 -80.08 -271.816 -80.08 -275.951 L -80.08 -353.451 L 29.92 -353.451 L 29.92 -275.951 C 29.92 -271.816 26.555 -268.451 22.42 -268.451 Z " fill="url(#_lgradient_29)"/><linearGradient id="_lgradient_30" x1="50.0175531872423%" y1="-130.5901322154144%" x2="50.01755318724225%" y2="190.89970977104159%"><stop offset="0%" stop-opacity="1" style="stop-color:rgb(26,109,255)"/><stop offset="100%" stop-opacity="1" style="stop-color:rgb(200,34,255)"/></linearGradient><path d=" M -47.152 -332.831 L -64.995 -317.219 C -66.083 -316.268 -66.708 -314.894 -66.708 -313.449 C -66.708 -312.004 -66.083 -310.629 -64.995 -309.679 L -47.152 -294.069 L -43.86 -297.831 L -61.702 -313.459 L -43.86 -329.069 L -47.152 -332.831 Z " fill="url(#_lgradient_30)"/><linearGradient id="_lgradient_31" x1="49.99407231772368%" y1="-131.4561596785691%" x2="49.99407231772362%" y2="191.575400168492%"><stop offset="0%" stop-opacity="1" style="stop-color:rgb(26,109,255)"/><stop offset="100%" stop-opacity="1" style="stop-color:rgb(200,34,255)"/></linearGradient><path d=" M -1.257 -332.739 L -4.75 -329.161 L 11.335 -313.441 L -4.75 -297.739 L -1.257 -294.161 L 14.828 -309.864 C 15.8 -310.814 16.338 -312.089 16.338 -313.449 C 16.338 -314.809 15.8 -316.084 14.828 -317.034 L -1.257 -332.739 Z " fill="url(#_lgradient_31)"/><linearGradient id="_lgradient_32" x1="50%" y1="-296.6098484848486%" x2="49.99999999999983%" y2="647.4621212121215%"><stop offset="0%" stop-opacity="1" style="stop-color:rgb(26,109,255)"/><stop offset="100%" stop-opacity="1" style="stop-color:rgb(200,34,255)"/></linearGradient><path d=" M -37.432 -281.799 L -32.727 -280.104 L -10.227 -342.604 L -14.932 -344.299 L -37.432 -281.799 Z " fill="url(#_lgradient_32)"/></g></svg>