<?xml version="1.0" encoding="UTF-8" standalone="no"?>
<!-- Generator: Gravit.io -->
<svg xmlns="http://www.w3.org/2000/svg" xmlns:xlink="http://www.w3.org/1999/xlink" style="isolation:isolate" viewBox="-216.571 -245.996 148.571 120" width="148.571" height="120"><g id="Group"><linearGradient id="_lgradient_33" x1="50%" y1="-1.03749999999998%" x2="49.999999999999986%" y2="100.1875%"><stop offset="0%" stop-opacity="1" style="stop-color:rgb(109,199,255)"/><stop offset="100%" stop-opacity="1" style="stop-color:rgb(230,171,255)"/></linearGradient><path d=" M -202.286 -174.567 L -208 -174.567 C -209.578 -174.567 -210.857 -175.846 -210.857 -177.424 L -210.857 -194.567 C -210.857 -196.145 -209.578 -197.424 -208 -197.424 L -202.286 -197.424 L -202.286 -174.567 Z " fill="url(#_lgradient_33)"/><linearGradient id="_lgradient_34" x1="50%" y1="-5.549999999999944%" x2="49.99999999999998%" y2="104.4833333333333%"><stop offset="0%" stop-opacity="1" style="stop-color:rgb(109,199,255)"/><stop offset="100%" stop-opacity="1" style="stop-color:rgb(230,171,255)"/></linearGradient><path d=" M -139.429 -177.424 C -134.695 -177.424 -130.857 -181.262 -130.857 -185.996 C -130.857 -190.729 -134.695 -194.567 -139.429 -194.567 L -139.429 -177.424 Z " fill="url(#_lgradient_34)"/><linearGradient id="_lgradient_35" x1="50%" y1="-4.364282479105464%" x2="49.99999999999998%" y2="105.64285204925375%"><stop offset="0%" stop-opacity="1" style="stop-color:rgb(26,109,255)"/><stop offset="100%" stop-opacity="1" style="stop-color:rgb(200,34,255)"/></linearGradient><path d=" M -139.429 -205.996 L -147.277 -205.996 C -145.686 -227.241 -141.823 -239.221 -139.591 -240.281 L -139.537 -240.281 C -137.96 -239.57 -134.109 -231.664 -132.066 -211.421 L -126.38 -211.996 C -128.654 -234.556 -133.049 -245.996 -139.429 -245.996 L -140.689 -245.996 C -144.265 -245.998 -147.714 -244.665 -150.36 -242.258 L -177.677 -217.424 L -193.714 -217.424 C -198.44 -217.424 -202.286 -213.578 -202.286 -208.853 L -202.286 -203.138 L -208 -203.138 C -212.726 -203.138 -216.571 -199.293 -216.571 -194.567 L -216.571 -177.424 C -216.571 -172.698 -212.726 -168.853 -208 -168.853 L -202.286 -168.853 L -202.286 -163.138 C -202.286 -158.413 -198.44 -154.567 -193.714 -154.567 L -177.677 -154.567 L -150.357 -129.733 C -147.713 -127.325 -144.265 -125.992 -140.689 -125.996 L -139.429 -125.996 C -133.049 -125.996 -128.654 -137.436 -126.377 -159.993 L -132.063 -160.567 C -134.12 -140.204 -138.006 -132.316 -139.291 -131.69 C -141.734 -132.676 -145.666 -144.676 -147.271 -165.996 L -139.429 -165.996 C -128.403 -165.996 -119.429 -174.97 -119.429 -185.996 C -119.429 -197.021 -128.403 -205.996 -139.429 -205.996 Z  M -208 -174.567 C -209.578 -174.567 -210.857 -175.846 -210.857 -177.424 L -210.857 -194.567 C -210.857 -196.145 -209.578 -197.424 -208 -197.424 L -202.286 -197.424 L -202.286 -174.567 L -208 -174.567 Z  M -179.429 -160.281 L -193.714 -160.281 C -195.292 -160.281 -196.571 -161.56 -196.571 -163.138 L -196.571 -208.853 C -196.571 -210.431 -195.292 -211.71 -193.714 -211.71 L -190.857 -211.71 L -190.857 -185.996 L -185.143 -185.996 L -185.143 -211.71 L -179.429 -211.71 L -179.429 -160.281 Z  M -173.714 -158.69 L -173.714 -213.301 L -147.58 -237.064 C -153.623 -220.801 -153.714 -187.838 -153.714 -185.996 C -153.714 -184.153 -153.623 -151.196 -147.58 -134.93 L -173.714 -158.69 Z  M -139.429 -171.71 L -147.631 -171.71 C -148.125 -181.227 -148.126 -190.764 -147.634 -200.281 L -139.429 -200.281 C -131.551 -200.281 -125.143 -193.873 -125.143 -185.996 C -125.143 -178.118 -131.551 -171.71 -139.429 -171.71 Z " fill="url(#_lgradient_35)"/><linearGradient id="_lgradient_36" x1="50.00873362445412%" y1="-67.62527008951538%" x2="50.00873362445408%" y2="170.06893713344994%"><stop offset="0%" stop-opacity="1" style="stop-color:rgb(26,109,255)"/><stop offset="100%" stop-opacity="1" style="stop-color:rgb(200,34,255)"/></linearGradient><path d=" M -114.66 -213.676 L -118.471 -209.418 C -111.813 -203.452 -108.006 -194.936 -108 -185.996 C -108 -176.987 -111.877 -168.393 -118.643 -162.424 L -114.86 -158.138 C -106.868 -165.192 -102.289 -175.336 -102.286 -185.996 C -102.286 -196.544 -106.794 -206.636 -114.66 -213.676 Z " fill="url(#_lgradient_36)"/><linearGradient id="_lgradient_37" x1="49.999999999999915%" y1="-30.60547219770519%" x2="49.999999999999886%" y2="132.51191526919678%"><stop offset="0%" stop-opacity="1" style="stop-color:rgb(26,109,255)"/><stop offset="100%" stop-opacity="1" style="stop-color:rgb(200,34,255)"/></linearGradient><path d=" M -103.246 -226.464 L -107.057 -222.207 C -96.757 -212.987 -90.866 -199.82 -90.857 -185.996 C -90.857 -172.198 -96.757 -159.004 -107.049 -149.793 L -103.237 -145.536 C -91.733 -155.84 -85.154 -170.551 -85.143 -185.996 C -85.154 -201.444 -91.736 -216.159 -103.246 -226.464 L -103.246 -226.464 Z " fill="url(#_lgradient_37)"/><linearGradient id="_lgradient_38" x1="49.99482776453448%" y1="-11.275996243113283%" x2="49.994827764534456%" y2="112.70897625117283%"><stop offset="0%" stop-opacity="1" style="stop-color:rgb(26,109,255)"/><stop offset="100%" stop-opacity="1" style="stop-color:rgb(200,34,255)"/></linearGradient><path d=" M -91.8 -239.227 L -95.611 -234.97 C -81.69 -222.495 -73.729 -204.689 -73.714 -185.996 C -73.728 -167.298 -81.693 -149.488 -95.62 -137.013 L -91.809 -132.756 C -76.669 -146.314 -68.012 -165.672 -68 -185.996 C -68.014 -206.314 -76.667 -225.668 -91.8 -239.227 L -91.8 -239.227 Z " fill="url(#_lgradient_38)"/></g></svg>