<?xml version="1.0" standalone="no"?><!-- Generator: Gravit.io --><svg xmlns="http://www.w3.org/2000/svg" xmlns:xlink="http://www.w3.org/1999/xlink" style="isolation:isolate" viewBox="80 -94 390 360" width="390" height="360"><g id="Group"><linearGradient id="_lgradient_47" x1="50%" y1="-34.366666666666745%" x2="49.999999999999964%" y2="145.49999999999983%"><stop offset="0%" stop-opacity="1" style="stop-color:rgb(109,199,255)"/><stop offset="100%" stop-opacity="1" style="stop-color:rgb(230,171,255)"/></linearGradient><rect x="95" y="228.5" width="360" height="22.5" transform="matrix(1,0,0,1,0,0)" fill="url(#_lgradient_47)"/><linearGradient id="_lgradient_48" x1="50%" y1="-1.0416666666666656%" x2="49.999999999999986%" y2="100.55416666666666%"><stop offset="0%" stop-opacity="1" style="stop-color:rgb(26,109,255)"/><stop offset="100%" stop-opacity="1" style="stop-color:rgb(200,34,255)"/></linearGradient><path d=" M 447.5 -41.5 L 380 -41.5 L 380 -56.5 C 380 -64.772 373.273 -71.5 365 -71.5 L 320 -71.5 C 320 -83.905 309.905 -94 297.5 -94 L 252.5 -94 C 240.095 -94 230 -83.905 230 -71.5 L 177.5 -71.5 C 169.227 -71.5 162.5 -64.772 162.5 -56.5 L 162.5 -41.5 L 102.5 -41.5 C 90.095 -41.5 80 -31.405 80 -19 L 80 243.5 C 80 255.905 90.095 266 102.5 266 L 447.5 266 C 459.905 266 470 255.905 470 243.5 L 470 -19 C 470 -31.405 459.905 -41.5 447.5 -41.5 Z  M 365 -56.5 L 365 -41.5 L 320 -41.5 L 320 -56.5 L 365 -56.5 Z  M 245 -71.5 C 245 -75.642 248.358 -79 252.5 -79 L 297.5 -79 C 301.642 -79 305 -75.642 305 -71.5 L 305 -11.5 L 245 -11.5 L 245 -71.5 Z  M 177.5 -56.5 L 230 -56.5 L 230 -41.5 L 177.5 -41.5 L 177.5 -56.5 Z  M 447.5 251 L 102.5 251 C 98.358 251 95 247.642 95 243.5 L 95 234.62 C 97.355 235.46 99.86 236 102.5 236 L 447.5 236 C 450.14 236 452.645 235.46 455 234.62 L 455 243.5 C 455 247.642 451.642 251 447.5 251 Z  M 455 213.5 C 455 217.642 451.642 221 447.5 221 L 102.5 221 C 98.358 221 95 217.642 95 213.5 L 95 -19 C 95 -23.142 98.358 -26.5 102.5 -26.5 L 230 -26.5 L 230 3.5 L 320 3.5 L 320 -26.5 L 447.5 -26.5 C 451.642 -26.5 455 -23.142 455 -19 L 455 213.5 Z " fill="url(#_lgradient_48)"/><linearGradient id="_lgradient_49" x1="50%" y1="-83.33333333333334%" x2="49.99999999999996%" y2="148.8857142857143%"><stop offset="0%" stop-opacity="1" style="stop-color:rgb(26,109,255)"/><stop offset="100%" stop-opacity="1" style="stop-color:rgb(200,34,255)"/></linearGradient><path d=" M 240.477 113.03 C 243.342 107.113 245 100.505 245 93.5 L 245 78.5 C 245 53.683 224.818 33.5 200 33.5 C 175.182 33.5 155 53.683 155 78.5 L 155 93.5 C 155 100.505 156.658 107.113 159.523 113.03 C 138.125 126.77 125 150.223 125 176 L 125 191 L 275 191 L 275 176 C 275 150.223 261.875 126.77 240.477 113.03 Z  M 170 78.5 C 170 61.955 183.455 48.5 200 48.5 C 216.545 48.5 230 61.955 230 78.5 L 230 93.5 C 230 110.045 216.545 123.5 200 123.5 C 183.455 123.5 170 110.045 170 93.5 L 170 78.5 Z  M 140 176 C 139.995 155.361 150.65 136.183 168.177 125.285 C 176.33 133.445 187.58 138.5 200 138.5 C 212.42 138.5 223.677 133.445 231.83 125.285 C 249.354 136.186 260.006 155.363 260 176 L 140 176 Z " fill="url(#_lgradient_49)"/><linearGradient id="_lgradient_50" x1="50%" y1="-875%" x2="49.99999999999955%" y2="1563.3%"><stop offset="0%" stop-opacity="1" style="stop-color:rgb(26,109,255)"/><stop offset="100%" stop-opacity="1" style="stop-color:rgb(200,34,255)"/></linearGradient><rect x="320" y="33.5" width="105" height="15" transform="matrix(1,0,0,1,0,0)" fill="url(#_lgradient_50)"/><linearGradient id="_lgradient_51" x1="50%" y1="-1075%" x2="49.99999999999955%" y2="1363.3%"><stop offset="0%" stop-opacity="1" style="stop-color:rgb(26,109,255)"/><stop offset="100%" stop-opacity="1" style="stop-color:rgb(200,34,255)"/></linearGradient><rect x="320" y="63.5" width="105" height="15" transform="matrix(1,0,0,1,0,0)" fill="url(#_lgradient_51)"/><linearGradient id="_lgradient_52" x1="50%" y1="-1275%" x2="49.99999999999955%" y2="1163.3%"><stop offset="0%" stop-opacity="1" style="stop-color:rgb(26,109,255)"/><stop offset="100%" stop-opacity="1" style="stop-color:rgb(200,34,255)"/></linearGradient><rect x="320" y="93.5" width="90" height="15" transform="matrix(1,0,0,1,0,0)" fill="url(#_lgradient_52)"/><linearGradient id="_lgradient_53" x1="50%" y1="-1475%" x2="49.99999999999955%" y2="963.3%"><stop offset="0%" stop-opacity="1" style="stop-color:rgb(26,109,255)"/><stop offset="100%" stop-opacity="1" style="stop-color:rgb(200,34,255)"/></linearGradient><rect x="320" y="123.5" width="75" height="15" transform="matrix(1,0,0,1,0,0)" fill="url(#_lgradient_53)"/><linearGradient id="_lgradient_54" x1="50%" y1="-1183.3333333333333%" x2="49.9999999999997%" y2="442.20000000000005%"><stop offset="0%" stop-opacity="1" style="stop-color:rgb(26,109,255)"/><stop offset="100%" stop-opacity="1" style="stop-color:rgb(200,34,255)"/></linearGradient><rect x="320" y="168.5" width="15" height="22.5" transform="matrix(1,0,0,1,0,0)" fill="url(#_lgradient_54)"/><linearGradient id="_lgradient_55" x1="50%" y1="-1183.3333333333333%" x2="49.9999999999997%" y2="442.20000000000005%"><stop offset="0%" stop-opacity="1" style="stop-color:rgb(26,109,255)"/><stop offset="100%" stop-opacity="1" style="stop-color:rgb(200,34,255)"/></linearGradient><rect x="350" y="168.5" width="15" height="22.5" transform="matrix(1,0,0,1,0,0)" fill="url(#_lgradient_55)"/><linearGradient id="_lgradient_56" x1="50%" y1="-1183.3333333333333%" x2="49.9999999999997%" y2="442.20000000000005%"><stop offset="0%" stop-opacity="1" style="stop-color:rgb(26,109,255)"/><stop offset="100%" stop-opacity="1" style="stop-color:rgb(200,34,255)"/></linearGradient><rect x="380" y="168.5" width="15" height="22.5" transform="matrix(1,0,0,1,0,0)" fill="url(#_lgradient_56)"/><linearGradient id="_lgradient_57" x1="50%" y1="-1183.3333333333333%" x2="49.9999999999997%" y2="442.20000000000005%"><stop offset="0%" stop-opacity="1" style="stop-color:rgb(26,109,255)"/><stop offset="100%" stop-opacity="1" style="stop-color:rgb(200,34,255)"/></linearGradient><rect x="410" y="168.5" width="15" height="22.5" transform="matrix(1,0,0,1,0,0)" fill="url(#_lgradient_57)"/><linearGradient id="_lgradient_58" x1="50%" y1="-3.740000000000032%" x2="49.99999999999998%" y2="106.31999999999996%"><stop offset="0%" stop-opacity="1" style="stop-color:rgb(109,199,255)"/><stop offset="100%" stop-opacity="1" style="stop-color:rgb(230,171,255)"/></linearGradient><path d=" M 290 -26.5 L 260 -26.5 L 260 -56.5 C 260 -60.642 263.358 -64 267.5 -64 L 282.5 -64 C 286.642 -64 290 -60.642 290 -56.5 L 290 -26.5 Z " fill="url(#_lgradient_58)"/></g></svg>