<?xml version="1.0" standalone="no"?><!-- Generator: Gravit.io --><svg xmlns="http://www.w3.org/2000/svg" xmlns:xlink="http://www.w3.org/1999/xlink" style="isolation:isolate" viewBox="60 -260.269 63.975 52" width="63.975" height="52"><linearGradient id="_lgradient_7" x1="49.99843745117035%" y1="-10.548205089714758%" x2="49.99843745117033%" y2="112.72229021812912%"><stop offset="0%" stop-opacity="1" style="stop-color:rgb(109,199,255)"/><stop offset="100%" stop-opacity="1" style="stop-color:rgb(230,171,255)"/></linearGradient><path d=" M 80.119 -208.269 C 104.262 -208.269 117.465 -228.272 117.465 -245.616 C 117.465 -246.183 117.453 -246.749 117.427 -247.313 C 119.996 -249.172 122.213 -251.473 123.975 -254.108 C 121.58 -253.046 119.039 -252.349 116.437 -252.041 C 119.178 -253.682 121.229 -256.263 122.209 -259.303 C 119.633 -257.774 116.814 -256.696 113.874 -256.116 C 110.191 -260.048 104.478 -261.33 99.467 -259.349 C 94.456 -257.368 91.165 -252.525 91.167 -247.137 C 91.167 -246.107 91.283 -245.106 91.507 -244.144 C 80.952 -244.672 71.118 -249.657 64.452 -257.857 C 63.286 -255.854 62.673 -253.577 62.675 -251.26 C 62.671 -246.869 64.863 -242.768 68.517 -240.334 C 66.432 -240.397 64.393 -240.96 62.571 -241.975 L 62.569 -241.807 C 62.57 -235.559 66.974 -230.177 73.099 -228.94 C 71.166 -228.414 69.139 -228.337 67.171 -228.714 C 68.891 -223.367 73.818 -219.704 79.433 -219.597 C 74.783 -215.948 69.041 -213.969 63.131 -213.979 C 62.071 -213.979 61.028 -214.039 60 -214.161 C 66.002 -210.308 72.986 -208.263 80.119 -208.269" fill="url(#_lgradient_7)"/></svg>