<?xml version="1.0" standalone="no"?><!-- Generator: Gravit.io --><svg xmlns="http://www.w3.org/2000/svg" xmlns:xlink="http://www.w3.org/1999/xlink" style="isolation:isolate" viewBox="638.49 57.491 332.308 360" width="332.308" height="360"><g id="Group"><linearGradient id="_lgradient_59" x1="50%" y1="-16.666666666666696%" x2="49.99999999999997%" y2="122.9166666666666%"><stop offset="0%" stop-opacity="1" style="stop-color:rgb(109,199,255)"/><stop offset="100%" stop-opacity="1" style="stop-color:rgb(230,171,255)"/></linearGradient><path d=" M 749.259 299.799 C 749.259 303.622 746.16 306.722 742.336 306.722 L 686.951 306.722 C 683.128 306.722 680.028 303.622 680.028 299.799 L 680.028 272.107 C 680.028 268.283 683.128 265.183 686.951 265.183 L 742.336 265.183 C 746.16 265.183 749.259 268.283 749.259 272.107 L 749.259 299.799 Z " fill="url(#_lgradient_59)"/><linearGradient id="_lgradient_60" x1="49.99999999999996%" y1="-356.05541078041404%" x2="49.99999999999982%" y2="364.01042381017675%"><stop offset="0%" stop-opacity="1" style="stop-color:rgb(26,109,255)"/><stop offset="100%" stop-opacity="1" style="stop-color:rgb(200,34,255)"/></linearGradient><path d=" M 931.288 232.597 L 894.637 269.233 L 878.769 253.366 L 868.98 263.155 L 884.848 279.023 C 887.548 281.73 891.092 283.073 894.644 283.073 C 898.195 283.073 901.74 281.73 904.44 279.023 L 941.077 242.386 L 931.288 232.597 Z " fill="url(#_lgradient_60)"/><linearGradient id="_lgradient_61" x1="50%" y1="-733.35%" x2="49.99999999999952%" y2="1891.6499999999999%"><stop offset="0%" stop-opacity="1" style="stop-color:rgb(26,109,255)"/><stop offset="100%" stop-opacity="1" style="stop-color:rgb(200,34,255)"/></linearGradient><rect x="680.028" y="154.414" width="124.615" height="13.846" transform="matrix(1,0,0,1,0,0)" fill="url(#_lgradient_61)"/><linearGradient id="_lgradient_62" x1="50%" y1="-933.3500000000001%" x2="49.99999999999952%" y2="1691.6499999999999%"><stop offset="0%" stop-opacity="1" style="stop-color:rgb(26,109,255)"/><stop offset="100%" stop-opacity="1" style="stop-color:rgb(200,34,255)"/></linearGradient><rect x="680.028" y="182.107" width="124.615" height="13.846" transform="matrix(1,0,0,1,0,0)" fill="url(#_lgradient_62)"/><linearGradient id="_lgradient_63" x1="50%" y1="-1133.3500000000001%" x2="49.99999999999952%" y2="1491.6499999999999%"><stop offset="0%" stop-opacity="1" style="stop-color:rgb(26,109,255)"/><stop offset="100%" stop-opacity="1" style="stop-color:rgb(200,34,255)"/></linearGradient><rect x="680.028" y="209.799" width="96.923" height="13.846" transform="matrix(1,0,0,1,0,0)" fill="url(#_lgradient_63)"/><linearGradient id="_lgradient_64" x1="50%" y1="-1333.3500000000001%" x2="49.99999999999952%" y2="1291.6499999999999%"><stop offset="0%" stop-opacity="1" style="stop-color:rgb(26,109,255)"/><stop offset="100%" stop-opacity="1" style="stop-color:rgb(200,34,255)"/></linearGradient><rect x="680.028" y="237.491" width="69.231" height="13.846" transform="matrix(1,0,0,1,0,0)" fill="url(#_lgradient_64)"/><linearGradient id="_lgradient_65" x1="50%" y1="-1.2826770855229388%" x2="49.999999999999986%" y2="99.6788462021136%"><stop offset="0%" stop-opacity="1" style="stop-color:rgb(26,109,255)"/><stop offset="100%" stop-opacity="1" style="stop-color:rgb(200,34,255)"/></linearGradient><path d=" M 970.798 258.26 C 970.798 218.605 940.322 185.97 901.567 182.46 L 901.567 139.377 C 901.567 133.832 899.4 128.612 895.481 124.694 L 834.365 63.577 C 830.478 59.67 825.191 57.479 819.681 57.491 L 659.259 57.491 C 647.808 57.491 638.49 66.81 638.49 78.26 L 638.49 396.722 C 638.49 408.173 647.808 417.491 659.259 417.491 L 880.798 417.491 C 892.248 417.491 901.567 408.173 901.567 396.722 L 901.567 334.061 C 940.322 330.551 970.798 297.916 970.798 258.26 Z  M 877.931 126.722 L 839.259 126.722 C 835.436 126.722 832.336 123.622 832.336 119.799 L 832.336 81.127 L 877.931 126.722 Z  M 887.721 396.722 C 887.721 400.545 884.621 403.645 880.798 403.645 L 659.259 403.645 C 655.436 403.645 652.336 400.545 652.336 396.722 L 652.336 389.799 L 887.721 389.799 L 887.721 396.722 Z  M 887.721 375.953 L 652.336 375.953 L 652.336 78.26 C 652.336 74.437 655.436 71.337 659.259 71.337 L 818.49 71.337 L 818.49 119.799 C 818.49 131.25 827.808 140.568 839.259 140.568 L 887.721 140.568 L 887.721 182.46 C 848.965 185.97 818.49 218.605 818.49 258.26 C 818.49 297.916 848.965 330.551 887.721 334.061 L 887.721 375.953 Z  M 894.644 320.568 C 860.285 320.568 832.336 292.62 832.336 258.26 C 832.336 223.901 860.285 195.953 894.644 195.953 C 929.003 195.953 956.951 223.901 956.951 258.26 C 956.951 292.62 929.003 320.568 894.644 320.568 Z " fill="url(#_lgradient_65)"/></g></svg>